%TF.GenerationSoftware,KiCad,Pcbnew,10.0.3*%
%TF.CreationDate,2026-07-09T23:47:25+02:00*%
%TF.ProjectId,SonosHack,536f6e6f-7348-4616-936b-2e6b69636164,rev?*%
%TF.SameCoordinates,Original*%
%TF.FileFunction,Soldermask,Bot*%
%TF.FilePolarity,Negative*%
%FSLAX46Y46*%
G04 Gerber Fmt 4.6, Leading zero omitted, Abs format (unit mm)*
G04 Created by KiCad (PCBNEW 10.0.3) date 2026-07-09 23:47:25*
%MOMM*%
%LPD*%
G01*
G04 APERTURE LIST*
%ADD10C,1.709999*%
%ADD11R,1.709999X1.709999*%
%ADD12R,1.700000X1.700000*%
%ADD13C,1.700000*%
%ADD14C,2.750000*%
%ADD15C,3.200000*%
%ADD16R,3.375000X3.375000*%
%ADD17C,3.375000*%
%ADD18C,1.350000*%
%ADD19R,2.500000X2.500000*%
%ADD20C,2.500000*%
%ADD21C,4.000000*%
%ADD22C,2.700000*%
G04 APERTURE END LIST*
D10*
%TO.C,U4*%
X168900000Y-89560000D03*
X168900000Y-92100000D03*
D11*
X168900000Y-94640000D03*
%TD*%
D12*
%TO.C,J1*%
X69670000Y-110320000D03*
D13*
X69670000Y-107780000D03*
X72210000Y-110320000D03*
X72210000Y-107780000D03*
X74750000Y-110320000D03*
X74750000Y-107780000D03*
X77290000Y-110320000D03*
X77290000Y-107780000D03*
X79830000Y-110320000D03*
X79830000Y-107780000D03*
X82370000Y-110320000D03*
X82370000Y-107780000D03*
X84910000Y-110320000D03*
X84910000Y-107780000D03*
X87450000Y-110320000D03*
X87450000Y-107780000D03*
X89990000Y-110320000D03*
X89990000Y-107780000D03*
X92530000Y-110320000D03*
X92530000Y-107780000D03*
X95070000Y-110320000D03*
X95070000Y-107780000D03*
X97610000Y-110320000D03*
X97610000Y-107780000D03*
X100150000Y-110320000D03*
X100150000Y-107780000D03*
X102690000Y-110320000D03*
X102690000Y-107780000D03*
X105230000Y-110320000D03*
X105230000Y-107780000D03*
X107770000Y-110320000D03*
X107770000Y-107780000D03*
X110310000Y-110320000D03*
X110310000Y-107780000D03*
X112850000Y-110320000D03*
X112850000Y-107780000D03*
X115390000Y-110320000D03*
X115390000Y-107780000D03*
X117930000Y-110320000D03*
X117930000Y-107780000D03*
%TD*%
D14*
%TO.C,J4*%
X122800000Y-132050000D03*
X122800000Y-109050000D03*
X64800000Y-132050000D03*
X64800000Y-109050000D03*
%TD*%
D15*
%TO.C,REF\u002A\u002A*%
X179500000Y-122227535D03*
%TD*%
D16*
%TO.C,J3*%
X60000000Y-56000000D03*
D17*
X60000000Y-61500000D03*
%TD*%
D15*
%TO.C,REF\u002A\u002A*%
X53500000Y-75000000D03*
%TD*%
%TO.C,REF\u002A\u002A*%
X179500000Y-71000000D03*
%TD*%
%TO.C,REF\u002A\u002A*%
X53500000Y-113000000D03*
%TD*%
D18*
%TO.C,J2*%
X155200000Y-134000000D03*
X153200000Y-134000000D03*
X151200000Y-134000000D03*
X149200000Y-134000000D03*
%TD*%
D19*
%TO.C,U2*%
X69800000Y-56000000D03*
D20*
X69800000Y-62750000D03*
D21*
X145800000Y-97250000D03*
X145800000Y-91750000D03*
%TD*%
D22*
%TO.C,REF\u002A\u002A*%
X53500000Y-121000000D03*
%TD*%
M02*
