%TF.GenerationSoftware,KiCad,Pcbnew,10.0.3*%
%TF.CreationDate,2026-07-09T23:47:25+02:00*%
%TF.ProjectId,SonosHack,536f6e6f-7348-4616-936b-2e6b69636164,rev?*%
%TF.SameCoordinates,Original*%
%TF.FileFunction,Paste,Top*%
%TF.FilePolarity,Positive*%
%FSLAX46Y46*%
G04 Gerber Fmt 4.6, Leading zero omitted, Abs format (unit mm)*
G04 Created by KiCad (PCBNEW 10.0.3) date 2026-07-09 23:47:25*
%MOMM*%
%LPD*%
G01*
G04 APERTURE LIST*
G04 Aperture macros list*
%AMRoundRect*
0 Rectangle with rounded corners*
0 $1 Rounding radius*
0 $2 $3 $4 $5 $6 $7 $8 $9 X,Y pos of 4 corners*
0 Add a 4 corners polygon primitive as box body*
4,1,4,$2,$3,$4,$5,$6,$7,$8,$9,$2,$3,0*
0 Add four circle primitives for the rounded corners*
1,1,$1+$1,$2,$3*
1,1,$1+$1,$4,$5*
1,1,$1+$1,$6,$7*
1,1,$1+$1,$8,$9*
0 Add four rect primitives between the rounded corners*
20,1,$1+$1,$2,$3,$4,$5,0*
20,1,$1+$1,$4,$5,$6,$7,0*
20,1,$1+$1,$6,$7,$8,$9,0*
20,1,$1+$1,$8,$9,$2,$3,0*%
G04 Aperture macros list end*
%ADD10RoundRect,0.140000X0.170000X-0.140000X0.170000X0.140000X-0.170000X0.140000X-0.170000X-0.140000X0*%
%ADD11RoundRect,0.250000X0.650000X-0.325000X0.650000X0.325000X-0.650000X0.325000X-0.650000X-0.325000X0*%
%ADD12RoundRect,0.250000X-0.650000X0.325000X-0.650000X-0.325000X0.650000X-0.325000X0.650000X0.325000X0*%
%ADD13RoundRect,0.140000X-0.170000X0.140000X-0.170000X-0.140000X0.170000X-0.140000X0.170000X0.140000X0*%
%ADD14RoundRect,0.135000X-0.185000X0.135000X-0.185000X-0.135000X0.185000X-0.135000X0.185000X0.135000X0*%
%ADD15RoundRect,0.135000X-0.135000X-0.185000X0.135000X-0.185000X0.135000X0.185000X-0.135000X0.185000X0*%
%ADD16RoundRect,0.135000X0.185000X-0.135000X0.185000X0.135000X-0.185000X0.135000X-0.185000X-0.135000X0*%
%ADD17RoundRect,0.232500X0.232500X0.232500X-0.232500X0.232500X-0.232500X-0.232500X0.232500X-0.232500X0*%
%ADD18RoundRect,0.062500X0.375000X0.062500X-0.375000X0.062500X-0.375000X-0.062500X0.375000X-0.062500X0*%
%ADD19RoundRect,0.062500X0.062500X0.375000X-0.062500X0.375000X-0.062500X-0.375000X0.062500X-0.375000X0*%
%ADD20RoundRect,0.225000X-0.225000X-0.250000X0.225000X-0.250000X0.225000X0.250000X-0.225000X0.250000X0*%
%ADD21RoundRect,0.225000X-0.250000X0.225000X-0.250000X-0.225000X0.250000X-0.225000X0.250000X0.225000X0*%
%ADD22RoundRect,0.250000X0.475000X-0.250000X0.475000X0.250000X-0.475000X0.250000X-0.475000X-0.250000X0*%
%ADD23RoundRect,0.225000X0.225000X0.250000X-0.225000X0.250000X-0.225000X-0.250000X0.225000X-0.250000X0*%
%ADD24RoundRect,0.250000X-0.250000X-0.475000X0.250000X-0.475000X0.250000X0.475000X-0.250000X0.475000X0*%
%ADD25RoundRect,0.135000X0.135000X0.185000X-0.135000X0.185000X-0.135000X-0.185000X0.135000X-0.185000X0*%
%ADD26RoundRect,0.225000X0.250000X-0.225000X0.250000X0.225000X-0.250000X0.225000X-0.250000X-0.225000X0*%
%ADD27RoundRect,0.250000X0.250000X0.475000X-0.250000X0.475000X-0.250000X-0.475000X0.250000X-0.475000X0*%
%ADD28R,5.000000X2.150000*%
%ADD29RoundRect,0.140000X-0.140000X-0.170000X0.140000X-0.170000X0.140000X0.170000X-0.140000X0.170000X0*%
G04 APERTURE END LIST*
D10*
%TO.C,C25*%
X164500000Y-94780000D03*
X164500000Y-93820000D03*
%TD*%
D11*
%TO.C,C24*%
X162700000Y-93025000D03*
X162700000Y-95975000D03*
%TD*%
D12*
%TO.C,C26*%
X162700000Y-88225000D03*
X162700000Y-91175000D03*
%TD*%
%TO.C,C27*%
X160200000Y-88225000D03*
X160200000Y-91175000D03*
%TD*%
D13*
%TO.C,C28*%
X164500000Y-90380000D03*
X164500000Y-89420000D03*
%TD*%
D14*
%TO.C,R10*%
X152900000Y-105280000D03*
X152900000Y-106300000D03*
%TD*%
D15*
%TO.C,R6*%
X133470000Y-107200000D03*
X134490000Y-107200000D03*
%TD*%
D16*
%TO.C,R8*%
X131100000Y-106400000D03*
X131100000Y-105380000D03*
%TD*%
%TO.C,R3*%
X133400000Y-114020000D03*
X133400000Y-113000000D03*
%TD*%
D17*
%TO.C,U1*%
X153350000Y-114477535D03*
X153350000Y-113327535D03*
X153350000Y-112177535D03*
X152200000Y-114477535D03*
X152200000Y-113327535D03*
X152200000Y-112177535D03*
X151050000Y-114477535D03*
X151050000Y-113327535D03*
X151050000Y-112177535D03*
D18*
X154637500Y-115077535D03*
X154637500Y-114577535D03*
X154637500Y-114077535D03*
X154637500Y-113577535D03*
X154637500Y-113077535D03*
X154637500Y-112577535D03*
X154637500Y-112077535D03*
X154637500Y-111577535D03*
D19*
X153950000Y-110890035D03*
X153450000Y-110890035D03*
X152950000Y-110890035D03*
X152450000Y-110890035D03*
X151950000Y-110890035D03*
X151450000Y-110890035D03*
X150950000Y-110890035D03*
X150450000Y-110890035D03*
D18*
X149762500Y-111577535D03*
X149762500Y-112077535D03*
X149762500Y-112577535D03*
X149762500Y-113077535D03*
X149762500Y-113577535D03*
X149762500Y-114077535D03*
X149762500Y-114577535D03*
X149762500Y-115077535D03*
D19*
X150450000Y-115765035D03*
X150950000Y-115765035D03*
X151450000Y-115765035D03*
X151950000Y-115765035D03*
X152450000Y-115765035D03*
X152950000Y-115765035D03*
X153450000Y-115765035D03*
X153950000Y-115765035D03*
%TD*%
D20*
%TO.C,C2*%
X156450000Y-110127535D03*
X158000000Y-110127535D03*
%TD*%
D15*
%TO.C,R5*%
X133480000Y-106100000D03*
X134500000Y-106100000D03*
%TD*%
D21*
%TO.C,C14*%
X151400000Y-118127535D03*
X151400000Y-119677535D03*
%TD*%
D22*
%TO.C,C8*%
X142300000Y-113627535D03*
X142300000Y-111727535D03*
%TD*%
%TO.C,C7*%
X144550000Y-113627535D03*
X144550000Y-111727535D03*
%TD*%
D23*
%TO.C,C18*%
X147900000Y-111427535D03*
X146350000Y-111427535D03*
%TD*%
D22*
%TO.C,C5*%
X161500000Y-113627535D03*
X161500000Y-111727535D03*
%TD*%
D24*
%TO.C,C11*%
X159600000Y-134000000D03*
X161500000Y-134000000D03*
%TD*%
D25*
%TO.C,R1*%
X131420000Y-114000000D03*
X130400000Y-114000000D03*
%TD*%
D16*
%TO.C,R9*%
X127600000Y-105900000D03*
X127600000Y-104880000D03*
%TD*%
D26*
%TO.C,C13*%
X147000000Y-116627535D03*
X147000000Y-115077535D03*
%TD*%
%TO.C,C9*%
X157400000Y-116627535D03*
X157400000Y-115077535D03*
%TD*%
D16*
%TO.C,R2*%
X135200000Y-112300000D03*
X135200000Y-111280000D03*
%TD*%
D27*
%TO.C,C15*%
X144550000Y-134000000D03*
X142650000Y-134000000D03*
%TD*%
D10*
%TO.C,C3*%
X156300000Y-113727535D03*
X156300000Y-112767535D03*
%TD*%
%TO.C,C6*%
X148100000Y-113677535D03*
X148100000Y-112717535D03*
%TD*%
D22*
%TO.C,C4*%
X159250000Y-113627535D03*
X159250000Y-111727535D03*
%TD*%
D25*
%TO.C,R4*%
X155100000Y-105600000D03*
X154080000Y-105600000D03*
%TD*%
D22*
%TO.C,C16*%
X150900000Y-130227535D03*
X150900000Y-128327535D03*
%TD*%
D23*
%TO.C,C19*%
X147900000Y-109827535D03*
X146350000Y-109827535D03*
%TD*%
D21*
%TO.C,C10*%
X153000000Y-118127535D03*
X153000000Y-119677535D03*
%TD*%
D28*
%TO.C,L3*%
X133800000Y-116952535D03*
X133800000Y-125302535D03*
%TD*%
%TO.C,L2*%
X160200000Y-120727535D03*
X160200000Y-129077535D03*
%TD*%
D15*
%TO.C,R7*%
X133480000Y-108300000D03*
X134500000Y-108300000D03*
%TD*%
D22*
%TO.C,C12*%
X153500000Y-130227535D03*
X153500000Y-128327535D03*
%TD*%
D28*
%TO.C,L1*%
X170600000Y-116952535D03*
X170600000Y-125302535D03*
%TD*%
D29*
%TO.C,C1*%
X156240000Y-111627535D03*
X157200000Y-111627535D03*
%TD*%
D28*
%TO.C,L4*%
X144200000Y-120727535D03*
X144200000Y-129077535D03*
%TD*%
D26*
%TO.C,C17*%
X154900000Y-109327535D03*
X154900000Y-107777535D03*
%TD*%
M02*
