M48
; DRILL file KiCad 10.0.3 date 2026-07-09T23:47:27
; FORMAT={-:-/ absolute / metric / decimal}
; #@! TF.CreationDate,2026-07-09T23:47:27+02:00
; #@! TF.GenerationSoftware,Kicad,Pcbnew,10.0.3
; #@! TF.FileFunction,Plated,1,2,PTH
FMAT,2
METRIC
; #@! TA.AperFunction,Plated,PTH,ViaDrill
T1C0.300
; #@! TA.AperFunction,Plated,PTH,ComponentDrill
T2C0.300
; #@! TA.AperFunction,Plated,PTH,ComponentDrill
T3C0.800
; #@! TA.AperFunction,Plated,PTH,ComponentDrill
T4C1.000
; #@! TA.AperFunction,Plated,PTH,ComponentDrill
T5C1.010
; #@! TA.AperFunction,Plated,PTH,ComponentDrill
T6C1.200
; #@! TA.AperFunction,Plated,PTH,ComponentDrill
T7C2.200
; #@! TA.AperFunction,Plated,PTH,ComponentDrill
T8C2.250
%
G90
G05
T1
X59.0Y-111.0
X59.0Y-116.0
X59.0Y-121.0
X59.0Y-126.0
X59.0Y-131.0
X59.0Y-136.0
X64.0Y-106.0
X64.0Y-111.0
X64.0Y-116.0
X64.0Y-121.0
X64.0Y-126.0
X64.0Y-136.0
X69.0Y-116.0
X69.0Y-121.0
X69.0Y-126.0
X69.0Y-131.0
X69.0Y-136.0
X74.0Y-116.0
X74.0Y-121.0
X74.0Y-126.0
X74.0Y-131.0
X74.0Y-136.0
X79.0Y-116.0
X79.0Y-121.0
X79.0Y-126.0
X79.0Y-131.0
X79.0Y-136.0
X84.0Y-116.0
X84.0Y-121.0
X84.0Y-126.0
X84.0Y-131.0
X84.0Y-136.0
X89.0Y-116.0
X89.0Y-121.0
X89.0Y-126.0
X89.0Y-131.0
X89.0Y-136.0
X91.3Y-106.3
X94.0Y-116.0
X94.0Y-121.0
X94.0Y-126.0
X94.0Y-131.0
X94.0Y-136.0
X95.1Y-112.3
X97.6Y-112.3
X99.0Y-116.0
X99.0Y-121.0
X99.0Y-126.0
X99.0Y-131.0
X99.0Y-136.0
X104.0Y-116.0
X104.0Y-121.0
X104.0Y-126.0
X104.0Y-131.0
X104.0Y-136.0
X109.0Y-116.0
X109.0Y-121.0
X109.0Y-126.0
X109.0Y-131.0
X109.0Y-136.0
X114.0Y-121.0
X114.0Y-126.0
X114.0Y-131.0
X114.0Y-136.0
X119.0Y-121.0
X119.0Y-126.0
X119.0Y-131.0
X119.0Y-136.0
X122.0Y-116.7
X124.0Y-121.0
X124.0Y-126.0
X124.0Y-136.0
X128.5Y-105.9
X129.0Y-108.1
X129.0Y-116.0
X129.0Y-121.0
X129.0Y-126.0
X129.0Y-131.0
X129.0Y-136.0
X129.2Y-110.7
X129.2Y-112.2
X129.2Y-114.4
X130.2Y-106.4
X131.3Y-110.6
X132.4Y-114.0
X132.5Y-106.1
X132.5Y-110.6
X134.0Y-136.0
X134.2Y-112.3
X135.5Y-114.0
X137.8Y-111.0
X137.8Y-112.0
X137.8Y-113.0
X137.8Y-114.0
X138.0Y-129.0
X138.8Y-111.0
X138.8Y-112.0
X138.8Y-113.0
X138.8Y-114.0
X139.0Y-136.0
X139.8Y-111.0
X139.8Y-112.0
X139.8Y-113.0
X139.8Y-114.0
X141.0Y-117.5
X141.55Y-133.4
X141.55Y-134.0
X141.55Y-134.6
X141.7Y-109.9
X141.7Y-110.6
X142.4Y-109.9
X142.4Y-110.6
X143.1Y-109.9
X143.1Y-110.6
X143.8Y-109.9
X143.8Y-110.6
X144.5Y-109.2
X144.5Y-109.9
X144.5Y-110.6
X145.2Y-109.2
X145.2Y-109.9
X145.2Y-110.6
X147.0Y-117.6
X147.0Y-118.4
X147.2Y-112.4
X147.8Y-117.6
X147.8Y-118.4
X148.6Y-116.6
X148.6Y-117.4
X148.6Y-118.2
X149.0Y-109.9
X149.2Y-116.2
X149.2Y-117.0
X149.2Y-117.8
X149.8Y-115.8
X149.8Y-116.6
X149.8Y-117.4
X150.0Y-98.0
X150.3Y-127.2
X150.6Y-116.6
X150.9Y-127.2
X151.5Y-127.2
X151.8Y-104.2
X152.0Y-98.0
X152.9Y-127.2
X153.5Y-127.2
X153.8Y-116.6
X154.0Y-86.0
X154.0Y-91.0
X154.0Y-93.0
X154.0Y-98.0
X154.1Y-127.2
X154.6Y-115.8
X154.6Y-116.6
X154.6Y-117.4
X154.9Y-106.6
X155.0Y-100.0
X155.2Y-116.2
X155.2Y-117.0
X155.2Y-117.8
X155.5Y-113.1
X155.7Y-106.6
X155.8Y-116.6
X155.8Y-117.4
X155.8Y-118.2
X156.0Y-86.0
X156.0Y-91.0
X156.0Y-93.0
X156.0Y-98.0
X156.1Y-108.378
X156.1Y-109.078
X156.6Y-87.5
X156.6Y-88.3
X156.6Y-89.1
X156.6Y-117.6
X156.6Y-118.4
X156.8Y-108.378
X156.8Y-109.078
X157.2Y-112.8
X157.4Y-87.5
X157.4Y-88.3
X157.4Y-89.1
X157.4Y-117.6
X157.4Y-118.4
X157.7Y-108.4
X157.7Y-109.1
X157.9Y-112.3
X158.0Y-86.0
X158.0Y-91.0
X158.0Y-93.0
X158.0Y-98.0
X158.0Y-111.2
X158.2Y-87.5
X158.2Y-88.3
X158.2Y-89.1
X158.4Y-108.4
X158.4Y-109.1
X159.1Y-108.4
X159.1Y-109.1
X159.1Y-109.8
X159.1Y-110.5
X159.8Y-108.4
X159.8Y-109.1
X159.8Y-109.8
X159.8Y-110.5
X160.0Y-86.0
X160.0Y-93.0
X160.0Y-98.0
X160.0Y-100.0
X160.5Y-109.8
X160.5Y-110.5
X161.2Y-109.8
X161.2Y-110.5
X161.9Y-109.8
X161.9Y-110.5
X162.0Y-86.0
X162.0Y-98.0
X162.65Y-133.4
X162.65Y-134.0
X162.65Y-134.6
X163.0Y-117.4
X164.0Y-86.0
X164.0Y-98.0
X164.0Y-110.8
X164.0Y-111.8
X164.0Y-112.8
X164.0Y-113.8
X165.0Y-100.0
X165.0Y-105.0
X165.0Y-110.8
X165.0Y-111.8
X165.0Y-112.8
X165.0Y-113.8
X166.0Y-86.0
X166.0Y-98.0
X166.0Y-110.8
X166.0Y-111.8
X166.0Y-112.8
X166.0Y-113.8
X166.4Y-128.8
X167.0Y-135.0
X168.0Y-86.0
X168.0Y-98.0
X170.0Y-86.0
X170.0Y-98.0
X170.0Y-100.0
X170.0Y-105.0
X170.0Y-110.0
X171.0Y-87.0
X171.0Y-89.0
X171.0Y-91.0
X171.0Y-93.0
X171.0Y-95.0
X171.0Y-97.0
X173.0Y-135.0
X175.0Y-85.0
X175.0Y-90.0
X175.0Y-95.0
X175.0Y-100.0
X175.0Y-105.0
X175.0Y-110.0
X175.0Y-115.0
X178.0Y-131.0
X180.0Y-85.0
X180.0Y-90.0
X180.0Y-95.0
X180.0Y-100.0
X180.0Y-105.0
X180.0Y-110.0
X180.0Y-115.0
T2
X151.2Y-112.328
X151.2Y-113.328
X151.2Y-114.328
X152.2Y-112.328
X152.2Y-113.328
X152.2Y-114.328
X153.2Y-112.328
X153.2Y-113.328
X153.2Y-114.328
T3
X149.2Y-134.0
X151.2Y-134.0
X153.2Y-134.0
X155.2Y-134.0
T4
X69.67Y-107.78
X69.67Y-110.32
X72.21Y-107.78
X72.21Y-110.32
X74.75Y-107.78
X74.75Y-110.32
X77.29Y-107.78
X77.29Y-110.32
X79.83Y-107.78
X79.83Y-110.32
X82.37Y-107.78
X82.37Y-110.32
X84.91Y-107.78
X84.91Y-110.32
X87.45Y-107.78
X87.45Y-110.32
X89.99Y-107.78
X89.99Y-110.32
X92.53Y-107.78
X92.53Y-110.32
X95.07Y-107.78
X95.07Y-110.32
X97.61Y-107.78
X97.61Y-110.32
X100.15Y-107.78
X100.15Y-110.32
X102.69Y-107.78
X102.69Y-110.32
X105.23Y-107.78
X105.23Y-110.32
X107.77Y-107.78
X107.77Y-110.32
X110.31Y-107.78
X110.31Y-110.32
X112.85Y-107.78
X112.85Y-110.32
X115.39Y-107.78
X115.39Y-110.32
X117.93Y-107.78
X117.93Y-110.32
T5
X168.9Y-89.56
X168.9Y-92.1
X168.9Y-94.64
T6
X69.8Y-56.0
X69.8Y-62.75
T7
X145.8Y-91.75
X145.8Y-97.25
T8
X60.0Y-56.0
X60.0Y-61.5
M30
