%TF.GenerationSoftware,KiCad,Pcbnew,10.0.3*%
%TF.CreationDate,2026-07-09T23:47:25+02:00*%
%TF.ProjectId,SonosHack,536f6e6f-7348-4616-936b-2e6b69636164,rev?*%
%TF.SameCoordinates,Original*%
%TF.FileFunction,Legend,Top*%
%TF.FilePolarity,Positive*%
%FSLAX46Y46*%
G04 Gerber Fmt 4.6, Leading zero omitted, Abs format (unit mm)*
G04 Created by KiCad (PCBNEW 10.0.3) date 2026-07-09 23:47:25*
%MOMM*%
%LPD*%
G01*
G04 APERTURE LIST*
%ADD10C,0.150000*%
%ADD11C,0.254000*%
%ADD12C,0.200000*%
%ADD13C,0.120000*%
%ADD14C,0.127000*%
%ADD15R,3.375000X3.375000*%
%ADD16C,3.375000*%
G04 APERTURE END LIST*
D10*
X165754819Y-86336904D02*
X166564342Y-86336904D01*
X166564342Y-86336904D02*
X166659580Y-86289285D01*
X166659580Y-86289285D02*
X166707200Y-86241666D01*
X166707200Y-86241666D02*
X166754819Y-86146428D01*
X166754819Y-86146428D02*
X166754819Y-85955952D01*
X166754819Y-85955952D02*
X166707200Y-85860714D01*
X166707200Y-85860714D02*
X166659580Y-85813095D01*
X166659580Y-85813095D02*
X166564342Y-85765476D01*
X166564342Y-85765476D02*
X165754819Y-85765476D01*
X166088152Y-84860714D02*
X166754819Y-84860714D01*
X165707200Y-85098809D02*
X166421485Y-85336904D01*
X166421485Y-85336904D02*
X166421485Y-84717857D01*
X164859580Y-99242857D02*
X164907200Y-99290476D01*
X164907200Y-99290476D02*
X164954819Y-99433333D01*
X164954819Y-99433333D02*
X164954819Y-99528571D01*
X164954819Y-99528571D02*
X164907200Y-99671428D01*
X164907200Y-99671428D02*
X164811961Y-99766666D01*
X164811961Y-99766666D02*
X164716723Y-99814285D01*
X164716723Y-99814285D02*
X164526247Y-99861904D01*
X164526247Y-99861904D02*
X164383390Y-99861904D01*
X164383390Y-99861904D02*
X164192914Y-99814285D01*
X164192914Y-99814285D02*
X164097676Y-99766666D01*
X164097676Y-99766666D02*
X164002438Y-99671428D01*
X164002438Y-99671428D02*
X163954819Y-99528571D01*
X163954819Y-99528571D02*
X163954819Y-99433333D01*
X163954819Y-99433333D02*
X164002438Y-99290476D01*
X164002438Y-99290476D02*
X164050057Y-99242857D01*
X164050057Y-98861904D02*
X164002438Y-98814285D01*
X164002438Y-98814285D02*
X163954819Y-98719047D01*
X163954819Y-98719047D02*
X163954819Y-98480952D01*
X163954819Y-98480952D02*
X164002438Y-98385714D01*
X164002438Y-98385714D02*
X164050057Y-98338095D01*
X164050057Y-98338095D02*
X164145295Y-98290476D01*
X164145295Y-98290476D02*
X164240533Y-98290476D01*
X164240533Y-98290476D02*
X164383390Y-98338095D01*
X164383390Y-98338095D02*
X164954819Y-98909523D01*
X164954819Y-98909523D02*
X164954819Y-98290476D01*
X163954819Y-97385714D02*
X163954819Y-97861904D01*
X163954819Y-97861904D02*
X164431009Y-97909523D01*
X164431009Y-97909523D02*
X164383390Y-97861904D01*
X164383390Y-97861904D02*
X164335771Y-97766666D01*
X164335771Y-97766666D02*
X164335771Y-97528571D01*
X164335771Y-97528571D02*
X164383390Y-97433333D01*
X164383390Y-97433333D02*
X164431009Y-97385714D01*
X164431009Y-97385714D02*
X164526247Y-97338095D01*
X164526247Y-97338095D02*
X164764342Y-97338095D01*
X164764342Y-97338095D02*
X164859580Y-97385714D01*
X164859580Y-97385714D02*
X164907200Y-97433333D01*
X164907200Y-97433333D02*
X164954819Y-97528571D01*
X164954819Y-97528571D02*
X164954819Y-97766666D01*
X164954819Y-97766666D02*
X164907200Y-97861904D01*
X164907200Y-97861904D02*
X164859580Y-97909523D01*
X162959580Y-99442857D02*
X163007200Y-99490476D01*
X163007200Y-99490476D02*
X163054819Y-99633333D01*
X163054819Y-99633333D02*
X163054819Y-99728571D01*
X163054819Y-99728571D02*
X163007200Y-99871428D01*
X163007200Y-99871428D02*
X162911961Y-99966666D01*
X162911961Y-99966666D02*
X162816723Y-100014285D01*
X162816723Y-100014285D02*
X162626247Y-100061904D01*
X162626247Y-100061904D02*
X162483390Y-100061904D01*
X162483390Y-100061904D02*
X162292914Y-100014285D01*
X162292914Y-100014285D02*
X162197676Y-99966666D01*
X162197676Y-99966666D02*
X162102438Y-99871428D01*
X162102438Y-99871428D02*
X162054819Y-99728571D01*
X162054819Y-99728571D02*
X162054819Y-99633333D01*
X162054819Y-99633333D02*
X162102438Y-99490476D01*
X162102438Y-99490476D02*
X162150057Y-99442857D01*
X162150057Y-99061904D02*
X162102438Y-99014285D01*
X162102438Y-99014285D02*
X162054819Y-98919047D01*
X162054819Y-98919047D02*
X162054819Y-98680952D01*
X162054819Y-98680952D02*
X162102438Y-98585714D01*
X162102438Y-98585714D02*
X162150057Y-98538095D01*
X162150057Y-98538095D02*
X162245295Y-98490476D01*
X162245295Y-98490476D02*
X162340533Y-98490476D01*
X162340533Y-98490476D02*
X162483390Y-98538095D01*
X162483390Y-98538095D02*
X163054819Y-99109523D01*
X163054819Y-99109523D02*
X163054819Y-98490476D01*
X162388152Y-97633333D02*
X163054819Y-97633333D01*
X162007200Y-97871428D02*
X162721485Y-98109523D01*
X162721485Y-98109523D02*
X162721485Y-97490476D01*
X163159580Y-86242857D02*
X163207200Y-86290476D01*
X163207200Y-86290476D02*
X163254819Y-86433333D01*
X163254819Y-86433333D02*
X163254819Y-86528571D01*
X163254819Y-86528571D02*
X163207200Y-86671428D01*
X163207200Y-86671428D02*
X163111961Y-86766666D01*
X163111961Y-86766666D02*
X163016723Y-86814285D01*
X163016723Y-86814285D02*
X162826247Y-86861904D01*
X162826247Y-86861904D02*
X162683390Y-86861904D01*
X162683390Y-86861904D02*
X162492914Y-86814285D01*
X162492914Y-86814285D02*
X162397676Y-86766666D01*
X162397676Y-86766666D02*
X162302438Y-86671428D01*
X162302438Y-86671428D02*
X162254819Y-86528571D01*
X162254819Y-86528571D02*
X162254819Y-86433333D01*
X162254819Y-86433333D02*
X162302438Y-86290476D01*
X162302438Y-86290476D02*
X162350057Y-86242857D01*
X162350057Y-85861904D02*
X162302438Y-85814285D01*
X162302438Y-85814285D02*
X162254819Y-85719047D01*
X162254819Y-85719047D02*
X162254819Y-85480952D01*
X162254819Y-85480952D02*
X162302438Y-85385714D01*
X162302438Y-85385714D02*
X162350057Y-85338095D01*
X162350057Y-85338095D02*
X162445295Y-85290476D01*
X162445295Y-85290476D02*
X162540533Y-85290476D01*
X162540533Y-85290476D02*
X162683390Y-85338095D01*
X162683390Y-85338095D02*
X163254819Y-85909523D01*
X163254819Y-85909523D02*
X163254819Y-85290476D01*
X162254819Y-84433333D02*
X162254819Y-84623809D01*
X162254819Y-84623809D02*
X162302438Y-84719047D01*
X162302438Y-84719047D02*
X162350057Y-84766666D01*
X162350057Y-84766666D02*
X162492914Y-84861904D01*
X162492914Y-84861904D02*
X162683390Y-84909523D01*
X162683390Y-84909523D02*
X163064342Y-84909523D01*
X163064342Y-84909523D02*
X163159580Y-84861904D01*
X163159580Y-84861904D02*
X163207200Y-84814285D01*
X163207200Y-84814285D02*
X163254819Y-84719047D01*
X163254819Y-84719047D02*
X163254819Y-84528571D01*
X163254819Y-84528571D02*
X163207200Y-84433333D01*
X163207200Y-84433333D02*
X163159580Y-84385714D01*
X163159580Y-84385714D02*
X163064342Y-84338095D01*
X163064342Y-84338095D02*
X162826247Y-84338095D01*
X162826247Y-84338095D02*
X162731009Y-84385714D01*
X162731009Y-84385714D02*
X162683390Y-84433333D01*
X162683390Y-84433333D02*
X162635771Y-84528571D01*
X162635771Y-84528571D02*
X162635771Y-84719047D01*
X162635771Y-84719047D02*
X162683390Y-84814285D01*
X162683390Y-84814285D02*
X162731009Y-84861904D01*
X162731009Y-84861904D02*
X162826247Y-84909523D01*
X160559580Y-86242857D02*
X160607200Y-86290476D01*
X160607200Y-86290476D02*
X160654819Y-86433333D01*
X160654819Y-86433333D02*
X160654819Y-86528571D01*
X160654819Y-86528571D02*
X160607200Y-86671428D01*
X160607200Y-86671428D02*
X160511961Y-86766666D01*
X160511961Y-86766666D02*
X160416723Y-86814285D01*
X160416723Y-86814285D02*
X160226247Y-86861904D01*
X160226247Y-86861904D02*
X160083390Y-86861904D01*
X160083390Y-86861904D02*
X159892914Y-86814285D01*
X159892914Y-86814285D02*
X159797676Y-86766666D01*
X159797676Y-86766666D02*
X159702438Y-86671428D01*
X159702438Y-86671428D02*
X159654819Y-86528571D01*
X159654819Y-86528571D02*
X159654819Y-86433333D01*
X159654819Y-86433333D02*
X159702438Y-86290476D01*
X159702438Y-86290476D02*
X159750057Y-86242857D01*
X159750057Y-85861904D02*
X159702438Y-85814285D01*
X159702438Y-85814285D02*
X159654819Y-85719047D01*
X159654819Y-85719047D02*
X159654819Y-85480952D01*
X159654819Y-85480952D02*
X159702438Y-85385714D01*
X159702438Y-85385714D02*
X159750057Y-85338095D01*
X159750057Y-85338095D02*
X159845295Y-85290476D01*
X159845295Y-85290476D02*
X159940533Y-85290476D01*
X159940533Y-85290476D02*
X160083390Y-85338095D01*
X160083390Y-85338095D02*
X160654819Y-85909523D01*
X160654819Y-85909523D02*
X160654819Y-85290476D01*
X159654819Y-84957142D02*
X159654819Y-84290476D01*
X159654819Y-84290476D02*
X160654819Y-84719047D01*
X164859580Y-86217857D02*
X164907200Y-86265476D01*
X164907200Y-86265476D02*
X164954819Y-86408333D01*
X164954819Y-86408333D02*
X164954819Y-86503571D01*
X164954819Y-86503571D02*
X164907200Y-86646428D01*
X164907200Y-86646428D02*
X164811961Y-86741666D01*
X164811961Y-86741666D02*
X164716723Y-86789285D01*
X164716723Y-86789285D02*
X164526247Y-86836904D01*
X164526247Y-86836904D02*
X164383390Y-86836904D01*
X164383390Y-86836904D02*
X164192914Y-86789285D01*
X164192914Y-86789285D02*
X164097676Y-86741666D01*
X164097676Y-86741666D02*
X164002438Y-86646428D01*
X164002438Y-86646428D02*
X163954819Y-86503571D01*
X163954819Y-86503571D02*
X163954819Y-86408333D01*
X163954819Y-86408333D02*
X164002438Y-86265476D01*
X164002438Y-86265476D02*
X164050057Y-86217857D01*
X164050057Y-85836904D02*
X164002438Y-85789285D01*
X164002438Y-85789285D02*
X163954819Y-85694047D01*
X163954819Y-85694047D02*
X163954819Y-85455952D01*
X163954819Y-85455952D02*
X164002438Y-85360714D01*
X164002438Y-85360714D02*
X164050057Y-85313095D01*
X164050057Y-85313095D02*
X164145295Y-85265476D01*
X164145295Y-85265476D02*
X164240533Y-85265476D01*
X164240533Y-85265476D02*
X164383390Y-85313095D01*
X164383390Y-85313095D02*
X164954819Y-85884523D01*
X164954819Y-85884523D02*
X164954819Y-85265476D01*
X164383390Y-84694047D02*
X164335771Y-84789285D01*
X164335771Y-84789285D02*
X164288152Y-84836904D01*
X164288152Y-84836904D02*
X164192914Y-84884523D01*
X164192914Y-84884523D02*
X164145295Y-84884523D01*
X164145295Y-84884523D02*
X164050057Y-84836904D01*
X164050057Y-84836904D02*
X164002438Y-84789285D01*
X164002438Y-84789285D02*
X163954819Y-84694047D01*
X163954819Y-84694047D02*
X163954819Y-84503571D01*
X163954819Y-84503571D02*
X164002438Y-84408333D01*
X164002438Y-84408333D02*
X164050057Y-84360714D01*
X164050057Y-84360714D02*
X164145295Y-84313095D01*
X164145295Y-84313095D02*
X164192914Y-84313095D01*
X164192914Y-84313095D02*
X164288152Y-84360714D01*
X164288152Y-84360714D02*
X164335771Y-84408333D01*
X164335771Y-84408333D02*
X164383390Y-84503571D01*
X164383390Y-84503571D02*
X164383390Y-84694047D01*
X164383390Y-84694047D02*
X164431009Y-84789285D01*
X164431009Y-84789285D02*
X164478628Y-84836904D01*
X164478628Y-84836904D02*
X164573866Y-84884523D01*
X164573866Y-84884523D02*
X164764342Y-84884523D01*
X164764342Y-84884523D02*
X164859580Y-84836904D01*
X164859580Y-84836904D02*
X164907200Y-84789285D01*
X164907200Y-84789285D02*
X164954819Y-84694047D01*
X164954819Y-84694047D02*
X164954819Y-84503571D01*
X164954819Y-84503571D02*
X164907200Y-84408333D01*
X164907200Y-84408333D02*
X164859580Y-84360714D01*
X164859580Y-84360714D02*
X164764342Y-84313095D01*
X164764342Y-84313095D02*
X164573866Y-84313095D01*
X164573866Y-84313095D02*
X164478628Y-84360714D01*
X164478628Y-84360714D02*
X164431009Y-84408333D01*
X164431009Y-84408333D02*
X164383390Y-84503571D01*
X69436666Y-112234819D02*
X69436666Y-112949104D01*
X69436666Y-112949104D02*
X69389047Y-113091961D01*
X69389047Y-113091961D02*
X69293809Y-113187200D01*
X69293809Y-113187200D02*
X69150952Y-113234819D01*
X69150952Y-113234819D02*
X69055714Y-113234819D01*
X70436666Y-113234819D02*
X69865238Y-113234819D01*
X70150952Y-113234819D02*
X70150952Y-112234819D01*
X70150952Y-112234819D02*
X70055714Y-112377676D01*
X70055714Y-112377676D02*
X69960476Y-112472914D01*
X69960476Y-112472914D02*
X69865238Y-112520533D01*
X150307142Y-106004819D02*
X149973809Y-105528628D01*
X149735714Y-106004819D02*
X149735714Y-105004819D01*
X149735714Y-105004819D02*
X150116666Y-105004819D01*
X150116666Y-105004819D02*
X150211904Y-105052438D01*
X150211904Y-105052438D02*
X150259523Y-105100057D01*
X150259523Y-105100057D02*
X150307142Y-105195295D01*
X150307142Y-105195295D02*
X150307142Y-105338152D01*
X150307142Y-105338152D02*
X150259523Y-105433390D01*
X150259523Y-105433390D02*
X150211904Y-105481009D01*
X150211904Y-105481009D02*
X150116666Y-105528628D01*
X150116666Y-105528628D02*
X149735714Y-105528628D01*
X151259523Y-106004819D02*
X150688095Y-106004819D01*
X150973809Y-106004819D02*
X150973809Y-105004819D01*
X150973809Y-105004819D02*
X150878571Y-105147676D01*
X150878571Y-105147676D02*
X150783333Y-105242914D01*
X150783333Y-105242914D02*
X150688095Y-105290533D01*
X151878571Y-105004819D02*
X151973809Y-105004819D01*
X151973809Y-105004819D02*
X152069047Y-105052438D01*
X152069047Y-105052438D02*
X152116666Y-105100057D01*
X152116666Y-105100057D02*
X152164285Y-105195295D01*
X152164285Y-105195295D02*
X152211904Y-105385771D01*
X152211904Y-105385771D02*
X152211904Y-105623866D01*
X152211904Y-105623866D02*
X152164285Y-105814342D01*
X152164285Y-105814342D02*
X152116666Y-105909580D01*
X152116666Y-105909580D02*
X152069047Y-105957200D01*
X152069047Y-105957200D02*
X151973809Y-106004819D01*
X151973809Y-106004819D02*
X151878571Y-106004819D01*
X151878571Y-106004819D02*
X151783333Y-105957200D01*
X151783333Y-105957200D02*
X151735714Y-105909580D01*
X151735714Y-105909580D02*
X151688095Y-105814342D01*
X151688095Y-105814342D02*
X151640476Y-105623866D01*
X151640476Y-105623866D02*
X151640476Y-105385771D01*
X151640476Y-105385771D02*
X151688095Y-105195295D01*
X151688095Y-105195295D02*
X151735714Y-105100057D01*
X151735714Y-105100057D02*
X151783333Y-105052438D01*
X151783333Y-105052438D02*
X151878571Y-105004819D01*
D11*
X59576667Y-51704318D02*
X59576667Y-52611461D01*
X59576667Y-52611461D02*
X59516190Y-52792889D01*
X59516190Y-52792889D02*
X59395238Y-52913842D01*
X59395238Y-52913842D02*
X59213809Y-52974318D01*
X59213809Y-52974318D02*
X59092857Y-52974318D01*
X60060476Y-51704318D02*
X60846667Y-51704318D01*
X60846667Y-51704318D02*
X60423333Y-52188127D01*
X60423333Y-52188127D02*
X60604762Y-52188127D01*
X60604762Y-52188127D02*
X60725714Y-52248603D01*
X60725714Y-52248603D02*
X60786190Y-52309080D01*
X60786190Y-52309080D02*
X60846667Y-52430032D01*
X60846667Y-52430032D02*
X60846667Y-52732413D01*
X60846667Y-52732413D02*
X60786190Y-52853365D01*
X60786190Y-52853365D02*
X60725714Y-52913842D01*
X60725714Y-52913842D02*
X60604762Y-52974318D01*
X60604762Y-52974318D02*
X60241905Y-52974318D01*
X60241905Y-52974318D02*
X60120952Y-52913842D01*
X60120952Y-52913842D02*
X60060476Y-52853365D01*
D10*
X135983333Y-107704819D02*
X135650000Y-107228628D01*
X135411905Y-107704819D02*
X135411905Y-106704819D01*
X135411905Y-106704819D02*
X135792857Y-106704819D01*
X135792857Y-106704819D02*
X135888095Y-106752438D01*
X135888095Y-106752438D02*
X135935714Y-106800057D01*
X135935714Y-106800057D02*
X135983333Y-106895295D01*
X135983333Y-106895295D02*
X135983333Y-107038152D01*
X135983333Y-107038152D02*
X135935714Y-107133390D01*
X135935714Y-107133390D02*
X135888095Y-107181009D01*
X135888095Y-107181009D02*
X135792857Y-107228628D01*
X135792857Y-107228628D02*
X135411905Y-107228628D01*
X136840476Y-106704819D02*
X136650000Y-106704819D01*
X136650000Y-106704819D02*
X136554762Y-106752438D01*
X136554762Y-106752438D02*
X136507143Y-106800057D01*
X136507143Y-106800057D02*
X136411905Y-106942914D01*
X136411905Y-106942914D02*
X136364286Y-107133390D01*
X136364286Y-107133390D02*
X136364286Y-107514342D01*
X136364286Y-107514342D02*
X136411905Y-107609580D01*
X136411905Y-107609580D02*
X136459524Y-107657200D01*
X136459524Y-107657200D02*
X136554762Y-107704819D01*
X136554762Y-107704819D02*
X136745238Y-107704819D01*
X136745238Y-107704819D02*
X136840476Y-107657200D01*
X136840476Y-107657200D02*
X136888095Y-107609580D01*
X136888095Y-107609580D02*
X136935714Y-107514342D01*
X136935714Y-107514342D02*
X136935714Y-107276247D01*
X136935714Y-107276247D02*
X136888095Y-107181009D01*
X136888095Y-107181009D02*
X136840476Y-107133390D01*
X136840476Y-107133390D02*
X136745238Y-107085771D01*
X136745238Y-107085771D02*
X136554762Y-107085771D01*
X136554762Y-107085771D02*
X136459524Y-107133390D01*
X136459524Y-107133390D02*
X136411905Y-107181009D01*
X136411905Y-107181009D02*
X136364286Y-107276247D01*
X130933333Y-108054819D02*
X130600000Y-107578628D01*
X130361905Y-108054819D02*
X130361905Y-107054819D01*
X130361905Y-107054819D02*
X130742857Y-107054819D01*
X130742857Y-107054819D02*
X130838095Y-107102438D01*
X130838095Y-107102438D02*
X130885714Y-107150057D01*
X130885714Y-107150057D02*
X130933333Y-107245295D01*
X130933333Y-107245295D02*
X130933333Y-107388152D01*
X130933333Y-107388152D02*
X130885714Y-107483390D01*
X130885714Y-107483390D02*
X130838095Y-107531009D01*
X130838095Y-107531009D02*
X130742857Y-107578628D01*
X130742857Y-107578628D02*
X130361905Y-107578628D01*
X131504762Y-107483390D02*
X131409524Y-107435771D01*
X131409524Y-107435771D02*
X131361905Y-107388152D01*
X131361905Y-107388152D02*
X131314286Y-107292914D01*
X131314286Y-107292914D02*
X131314286Y-107245295D01*
X131314286Y-107245295D02*
X131361905Y-107150057D01*
X131361905Y-107150057D02*
X131409524Y-107102438D01*
X131409524Y-107102438D02*
X131504762Y-107054819D01*
X131504762Y-107054819D02*
X131695238Y-107054819D01*
X131695238Y-107054819D02*
X131790476Y-107102438D01*
X131790476Y-107102438D02*
X131838095Y-107150057D01*
X131838095Y-107150057D02*
X131885714Y-107245295D01*
X131885714Y-107245295D02*
X131885714Y-107292914D01*
X131885714Y-107292914D02*
X131838095Y-107388152D01*
X131838095Y-107388152D02*
X131790476Y-107435771D01*
X131790476Y-107435771D02*
X131695238Y-107483390D01*
X131695238Y-107483390D02*
X131504762Y-107483390D01*
X131504762Y-107483390D02*
X131409524Y-107531009D01*
X131409524Y-107531009D02*
X131361905Y-107578628D01*
X131361905Y-107578628D02*
X131314286Y-107673866D01*
X131314286Y-107673866D02*
X131314286Y-107864342D01*
X131314286Y-107864342D02*
X131361905Y-107959580D01*
X131361905Y-107959580D02*
X131409524Y-108007200D01*
X131409524Y-108007200D02*
X131504762Y-108054819D01*
X131504762Y-108054819D02*
X131695238Y-108054819D01*
X131695238Y-108054819D02*
X131790476Y-108007200D01*
X131790476Y-108007200D02*
X131838095Y-107959580D01*
X131838095Y-107959580D02*
X131885714Y-107864342D01*
X131885714Y-107864342D02*
X131885714Y-107673866D01*
X131885714Y-107673866D02*
X131838095Y-107578628D01*
X131838095Y-107578628D02*
X131790476Y-107531009D01*
X131790476Y-107531009D02*
X131695238Y-107483390D01*
X134833333Y-114204819D02*
X134500000Y-113728628D01*
X134261905Y-114204819D02*
X134261905Y-113204819D01*
X134261905Y-113204819D02*
X134642857Y-113204819D01*
X134642857Y-113204819D02*
X134738095Y-113252438D01*
X134738095Y-113252438D02*
X134785714Y-113300057D01*
X134785714Y-113300057D02*
X134833333Y-113395295D01*
X134833333Y-113395295D02*
X134833333Y-113538152D01*
X134833333Y-113538152D02*
X134785714Y-113633390D01*
X134785714Y-113633390D02*
X134738095Y-113681009D01*
X134738095Y-113681009D02*
X134642857Y-113728628D01*
X134642857Y-113728628D02*
X134261905Y-113728628D01*
X135166667Y-113204819D02*
X135785714Y-113204819D01*
X135785714Y-113204819D02*
X135452381Y-113585771D01*
X135452381Y-113585771D02*
X135595238Y-113585771D01*
X135595238Y-113585771D02*
X135690476Y-113633390D01*
X135690476Y-113633390D02*
X135738095Y-113681009D01*
X135738095Y-113681009D02*
X135785714Y-113776247D01*
X135785714Y-113776247D02*
X135785714Y-114014342D01*
X135785714Y-114014342D02*
X135738095Y-114109580D01*
X135738095Y-114109580D02*
X135690476Y-114157200D01*
X135690476Y-114157200D02*
X135595238Y-114204819D01*
X135595238Y-114204819D02*
X135309524Y-114204819D01*
X135309524Y-114204819D02*
X135214286Y-114157200D01*
X135214286Y-114157200D02*
X135166667Y-114109580D01*
X149738095Y-108954819D02*
X149738095Y-109764342D01*
X149738095Y-109764342D02*
X149785714Y-109859580D01*
X149785714Y-109859580D02*
X149833333Y-109907200D01*
X149833333Y-109907200D02*
X149928571Y-109954819D01*
X149928571Y-109954819D02*
X150119047Y-109954819D01*
X150119047Y-109954819D02*
X150214285Y-109907200D01*
X150214285Y-109907200D02*
X150261904Y-109859580D01*
X150261904Y-109859580D02*
X150309523Y-109764342D01*
X150309523Y-109764342D02*
X150309523Y-108954819D01*
X151309523Y-109954819D02*
X150738095Y-109954819D01*
X151023809Y-109954819D02*
X151023809Y-108954819D01*
X151023809Y-108954819D02*
X150928571Y-109097676D01*
X150928571Y-109097676D02*
X150833333Y-109192914D01*
X150833333Y-109192914D02*
X150738095Y-109240533D01*
X157283333Y-106459580D02*
X157235714Y-106507200D01*
X157235714Y-106507200D02*
X157092857Y-106554819D01*
X157092857Y-106554819D02*
X156997619Y-106554819D01*
X156997619Y-106554819D02*
X156854762Y-106507200D01*
X156854762Y-106507200D02*
X156759524Y-106411961D01*
X156759524Y-106411961D02*
X156711905Y-106316723D01*
X156711905Y-106316723D02*
X156664286Y-106126247D01*
X156664286Y-106126247D02*
X156664286Y-105983390D01*
X156664286Y-105983390D02*
X156711905Y-105792914D01*
X156711905Y-105792914D02*
X156759524Y-105697676D01*
X156759524Y-105697676D02*
X156854762Y-105602438D01*
X156854762Y-105602438D02*
X156997619Y-105554819D01*
X156997619Y-105554819D02*
X157092857Y-105554819D01*
X157092857Y-105554819D02*
X157235714Y-105602438D01*
X157235714Y-105602438D02*
X157283333Y-105650057D01*
X157664286Y-105650057D02*
X157711905Y-105602438D01*
X157711905Y-105602438D02*
X157807143Y-105554819D01*
X157807143Y-105554819D02*
X158045238Y-105554819D01*
X158045238Y-105554819D02*
X158140476Y-105602438D01*
X158140476Y-105602438D02*
X158188095Y-105650057D01*
X158188095Y-105650057D02*
X158235714Y-105745295D01*
X158235714Y-105745295D02*
X158235714Y-105840533D01*
X158235714Y-105840533D02*
X158188095Y-105983390D01*
X158188095Y-105983390D02*
X157616667Y-106554819D01*
X157616667Y-106554819D02*
X158235714Y-106554819D01*
X135983333Y-106304819D02*
X135650000Y-105828628D01*
X135411905Y-106304819D02*
X135411905Y-105304819D01*
X135411905Y-105304819D02*
X135792857Y-105304819D01*
X135792857Y-105304819D02*
X135888095Y-105352438D01*
X135888095Y-105352438D02*
X135935714Y-105400057D01*
X135935714Y-105400057D02*
X135983333Y-105495295D01*
X135983333Y-105495295D02*
X135983333Y-105638152D01*
X135983333Y-105638152D02*
X135935714Y-105733390D01*
X135935714Y-105733390D02*
X135888095Y-105781009D01*
X135888095Y-105781009D02*
X135792857Y-105828628D01*
X135792857Y-105828628D02*
X135411905Y-105828628D01*
X136888095Y-105304819D02*
X136411905Y-105304819D01*
X136411905Y-105304819D02*
X136364286Y-105781009D01*
X136364286Y-105781009D02*
X136411905Y-105733390D01*
X136411905Y-105733390D02*
X136507143Y-105685771D01*
X136507143Y-105685771D02*
X136745238Y-105685771D01*
X136745238Y-105685771D02*
X136840476Y-105733390D01*
X136840476Y-105733390D02*
X136888095Y-105781009D01*
X136888095Y-105781009D02*
X136935714Y-105876247D01*
X136935714Y-105876247D02*
X136935714Y-106114342D01*
X136935714Y-106114342D02*
X136888095Y-106209580D01*
X136888095Y-106209580D02*
X136840476Y-106257200D01*
X136840476Y-106257200D02*
X136745238Y-106304819D01*
X136745238Y-106304819D02*
X136507143Y-106304819D01*
X136507143Y-106304819D02*
X136411905Y-106257200D01*
X136411905Y-106257200D02*
X136364286Y-106209580D01*
X151709580Y-122492857D02*
X151757200Y-122540476D01*
X151757200Y-122540476D02*
X151804819Y-122683333D01*
X151804819Y-122683333D02*
X151804819Y-122778571D01*
X151804819Y-122778571D02*
X151757200Y-122921428D01*
X151757200Y-122921428D02*
X151661961Y-123016666D01*
X151661961Y-123016666D02*
X151566723Y-123064285D01*
X151566723Y-123064285D02*
X151376247Y-123111904D01*
X151376247Y-123111904D02*
X151233390Y-123111904D01*
X151233390Y-123111904D02*
X151042914Y-123064285D01*
X151042914Y-123064285D02*
X150947676Y-123016666D01*
X150947676Y-123016666D02*
X150852438Y-122921428D01*
X150852438Y-122921428D02*
X150804819Y-122778571D01*
X150804819Y-122778571D02*
X150804819Y-122683333D01*
X150804819Y-122683333D02*
X150852438Y-122540476D01*
X150852438Y-122540476D02*
X150900057Y-122492857D01*
X151804819Y-121540476D02*
X151804819Y-122111904D01*
X151804819Y-121826190D02*
X150804819Y-121826190D01*
X150804819Y-121826190D02*
X150947676Y-121921428D01*
X150947676Y-121921428D02*
X151042914Y-122016666D01*
X151042914Y-122016666D02*
X151090533Y-122111904D01*
X151138152Y-120683333D02*
X151804819Y-120683333D01*
X150757200Y-120921428D02*
X151471485Y-121159523D01*
X151471485Y-121159523D02*
X151471485Y-120540476D01*
X142083333Y-115459580D02*
X142035714Y-115507200D01*
X142035714Y-115507200D02*
X141892857Y-115554819D01*
X141892857Y-115554819D02*
X141797619Y-115554819D01*
X141797619Y-115554819D02*
X141654762Y-115507200D01*
X141654762Y-115507200D02*
X141559524Y-115411961D01*
X141559524Y-115411961D02*
X141511905Y-115316723D01*
X141511905Y-115316723D02*
X141464286Y-115126247D01*
X141464286Y-115126247D02*
X141464286Y-114983390D01*
X141464286Y-114983390D02*
X141511905Y-114792914D01*
X141511905Y-114792914D02*
X141559524Y-114697676D01*
X141559524Y-114697676D02*
X141654762Y-114602438D01*
X141654762Y-114602438D02*
X141797619Y-114554819D01*
X141797619Y-114554819D02*
X141892857Y-114554819D01*
X141892857Y-114554819D02*
X142035714Y-114602438D01*
X142035714Y-114602438D02*
X142083333Y-114650057D01*
X142654762Y-114983390D02*
X142559524Y-114935771D01*
X142559524Y-114935771D02*
X142511905Y-114888152D01*
X142511905Y-114888152D02*
X142464286Y-114792914D01*
X142464286Y-114792914D02*
X142464286Y-114745295D01*
X142464286Y-114745295D02*
X142511905Y-114650057D01*
X142511905Y-114650057D02*
X142559524Y-114602438D01*
X142559524Y-114602438D02*
X142654762Y-114554819D01*
X142654762Y-114554819D02*
X142845238Y-114554819D01*
X142845238Y-114554819D02*
X142940476Y-114602438D01*
X142940476Y-114602438D02*
X142988095Y-114650057D01*
X142988095Y-114650057D02*
X143035714Y-114745295D01*
X143035714Y-114745295D02*
X143035714Y-114792914D01*
X143035714Y-114792914D02*
X142988095Y-114888152D01*
X142988095Y-114888152D02*
X142940476Y-114935771D01*
X142940476Y-114935771D02*
X142845238Y-114983390D01*
X142845238Y-114983390D02*
X142654762Y-114983390D01*
X142654762Y-114983390D02*
X142559524Y-115031009D01*
X142559524Y-115031009D02*
X142511905Y-115078628D01*
X142511905Y-115078628D02*
X142464286Y-115173866D01*
X142464286Y-115173866D02*
X142464286Y-115364342D01*
X142464286Y-115364342D02*
X142511905Y-115459580D01*
X142511905Y-115459580D02*
X142559524Y-115507200D01*
X142559524Y-115507200D02*
X142654762Y-115554819D01*
X142654762Y-115554819D02*
X142845238Y-115554819D01*
X142845238Y-115554819D02*
X142940476Y-115507200D01*
X142940476Y-115507200D02*
X142988095Y-115459580D01*
X142988095Y-115459580D02*
X143035714Y-115364342D01*
X143035714Y-115364342D02*
X143035714Y-115173866D01*
X143035714Y-115173866D02*
X142988095Y-115078628D01*
X142988095Y-115078628D02*
X142940476Y-115031009D01*
X142940476Y-115031009D02*
X142845238Y-114983390D01*
X144333333Y-115509580D02*
X144285714Y-115557200D01*
X144285714Y-115557200D02*
X144142857Y-115604819D01*
X144142857Y-115604819D02*
X144047619Y-115604819D01*
X144047619Y-115604819D02*
X143904762Y-115557200D01*
X143904762Y-115557200D02*
X143809524Y-115461961D01*
X143809524Y-115461961D02*
X143761905Y-115366723D01*
X143761905Y-115366723D02*
X143714286Y-115176247D01*
X143714286Y-115176247D02*
X143714286Y-115033390D01*
X143714286Y-115033390D02*
X143761905Y-114842914D01*
X143761905Y-114842914D02*
X143809524Y-114747676D01*
X143809524Y-114747676D02*
X143904762Y-114652438D01*
X143904762Y-114652438D02*
X144047619Y-114604819D01*
X144047619Y-114604819D02*
X144142857Y-114604819D01*
X144142857Y-114604819D02*
X144285714Y-114652438D01*
X144285714Y-114652438D02*
X144333333Y-114700057D01*
X144666667Y-114604819D02*
X145333333Y-114604819D01*
X145333333Y-114604819D02*
X144904762Y-115604819D01*
X146482142Y-108709580D02*
X146434523Y-108757200D01*
X146434523Y-108757200D02*
X146291666Y-108804819D01*
X146291666Y-108804819D02*
X146196428Y-108804819D01*
X146196428Y-108804819D02*
X146053571Y-108757200D01*
X146053571Y-108757200D02*
X145958333Y-108661961D01*
X145958333Y-108661961D02*
X145910714Y-108566723D01*
X145910714Y-108566723D02*
X145863095Y-108376247D01*
X145863095Y-108376247D02*
X145863095Y-108233390D01*
X145863095Y-108233390D02*
X145910714Y-108042914D01*
X145910714Y-108042914D02*
X145958333Y-107947676D01*
X145958333Y-107947676D02*
X146053571Y-107852438D01*
X146053571Y-107852438D02*
X146196428Y-107804819D01*
X146196428Y-107804819D02*
X146291666Y-107804819D01*
X146291666Y-107804819D02*
X146434523Y-107852438D01*
X146434523Y-107852438D02*
X146482142Y-107900057D01*
X147434523Y-108804819D02*
X146863095Y-108804819D01*
X147148809Y-108804819D02*
X147148809Y-107804819D01*
X147148809Y-107804819D02*
X147053571Y-107947676D01*
X147053571Y-107947676D02*
X146958333Y-108042914D01*
X146958333Y-108042914D02*
X146863095Y-108090533D01*
X148005952Y-108233390D02*
X147910714Y-108185771D01*
X147910714Y-108185771D02*
X147863095Y-108138152D01*
X147863095Y-108138152D02*
X147815476Y-108042914D01*
X147815476Y-108042914D02*
X147815476Y-107995295D01*
X147815476Y-107995295D02*
X147863095Y-107900057D01*
X147863095Y-107900057D02*
X147910714Y-107852438D01*
X147910714Y-107852438D02*
X148005952Y-107804819D01*
X148005952Y-107804819D02*
X148196428Y-107804819D01*
X148196428Y-107804819D02*
X148291666Y-107852438D01*
X148291666Y-107852438D02*
X148339285Y-107900057D01*
X148339285Y-107900057D02*
X148386904Y-107995295D01*
X148386904Y-107995295D02*
X148386904Y-108042914D01*
X148386904Y-108042914D02*
X148339285Y-108138152D01*
X148339285Y-108138152D02*
X148291666Y-108185771D01*
X148291666Y-108185771D02*
X148196428Y-108233390D01*
X148196428Y-108233390D02*
X148005952Y-108233390D01*
X148005952Y-108233390D02*
X147910714Y-108281009D01*
X147910714Y-108281009D02*
X147863095Y-108328628D01*
X147863095Y-108328628D02*
X147815476Y-108423866D01*
X147815476Y-108423866D02*
X147815476Y-108614342D01*
X147815476Y-108614342D02*
X147863095Y-108709580D01*
X147863095Y-108709580D02*
X147910714Y-108757200D01*
X147910714Y-108757200D02*
X148005952Y-108804819D01*
X148005952Y-108804819D02*
X148196428Y-108804819D01*
X148196428Y-108804819D02*
X148291666Y-108757200D01*
X148291666Y-108757200D02*
X148339285Y-108709580D01*
X148339285Y-108709580D02*
X148386904Y-108614342D01*
X148386904Y-108614342D02*
X148386904Y-108423866D01*
X148386904Y-108423866D02*
X148339285Y-108328628D01*
X148339285Y-108328628D02*
X148291666Y-108281009D01*
X148291666Y-108281009D02*
X148196428Y-108233390D01*
X161833333Y-115659580D02*
X161785714Y-115707200D01*
X161785714Y-115707200D02*
X161642857Y-115754819D01*
X161642857Y-115754819D02*
X161547619Y-115754819D01*
X161547619Y-115754819D02*
X161404762Y-115707200D01*
X161404762Y-115707200D02*
X161309524Y-115611961D01*
X161309524Y-115611961D02*
X161261905Y-115516723D01*
X161261905Y-115516723D02*
X161214286Y-115326247D01*
X161214286Y-115326247D02*
X161214286Y-115183390D01*
X161214286Y-115183390D02*
X161261905Y-114992914D01*
X161261905Y-114992914D02*
X161309524Y-114897676D01*
X161309524Y-114897676D02*
X161404762Y-114802438D01*
X161404762Y-114802438D02*
X161547619Y-114754819D01*
X161547619Y-114754819D02*
X161642857Y-114754819D01*
X161642857Y-114754819D02*
X161785714Y-114802438D01*
X161785714Y-114802438D02*
X161833333Y-114850057D01*
X162738095Y-114754819D02*
X162261905Y-114754819D01*
X162261905Y-114754819D02*
X162214286Y-115231009D01*
X162214286Y-115231009D02*
X162261905Y-115183390D01*
X162261905Y-115183390D02*
X162357143Y-115135771D01*
X162357143Y-115135771D02*
X162595238Y-115135771D01*
X162595238Y-115135771D02*
X162690476Y-115183390D01*
X162690476Y-115183390D02*
X162738095Y-115231009D01*
X162738095Y-115231009D02*
X162785714Y-115326247D01*
X162785714Y-115326247D02*
X162785714Y-115564342D01*
X162785714Y-115564342D02*
X162738095Y-115659580D01*
X162738095Y-115659580D02*
X162690476Y-115707200D01*
X162690476Y-115707200D02*
X162595238Y-115754819D01*
X162595238Y-115754819D02*
X162357143Y-115754819D01*
X162357143Y-115754819D02*
X162261905Y-115707200D01*
X162261905Y-115707200D02*
X162214286Y-115659580D01*
X159907142Y-132679580D02*
X159859523Y-132727200D01*
X159859523Y-132727200D02*
X159716666Y-132774819D01*
X159716666Y-132774819D02*
X159621428Y-132774819D01*
X159621428Y-132774819D02*
X159478571Y-132727200D01*
X159478571Y-132727200D02*
X159383333Y-132631961D01*
X159383333Y-132631961D02*
X159335714Y-132536723D01*
X159335714Y-132536723D02*
X159288095Y-132346247D01*
X159288095Y-132346247D02*
X159288095Y-132203390D01*
X159288095Y-132203390D02*
X159335714Y-132012914D01*
X159335714Y-132012914D02*
X159383333Y-131917676D01*
X159383333Y-131917676D02*
X159478571Y-131822438D01*
X159478571Y-131822438D02*
X159621428Y-131774819D01*
X159621428Y-131774819D02*
X159716666Y-131774819D01*
X159716666Y-131774819D02*
X159859523Y-131822438D01*
X159859523Y-131822438D02*
X159907142Y-131870057D01*
X160859523Y-132774819D02*
X160288095Y-132774819D01*
X160573809Y-132774819D02*
X160573809Y-131774819D01*
X160573809Y-131774819D02*
X160478571Y-131917676D01*
X160478571Y-131917676D02*
X160383333Y-132012914D01*
X160383333Y-132012914D02*
X160288095Y-132060533D01*
X161811904Y-132774819D02*
X161240476Y-132774819D01*
X161526190Y-132774819D02*
X161526190Y-131774819D01*
X161526190Y-131774819D02*
X161430952Y-131917676D01*
X161430952Y-131917676D02*
X161335714Y-132012914D01*
X161335714Y-132012914D02*
X161240476Y-132060533D01*
X130483333Y-113154819D02*
X130150000Y-112678628D01*
X129911905Y-113154819D02*
X129911905Y-112154819D01*
X129911905Y-112154819D02*
X130292857Y-112154819D01*
X130292857Y-112154819D02*
X130388095Y-112202438D01*
X130388095Y-112202438D02*
X130435714Y-112250057D01*
X130435714Y-112250057D02*
X130483333Y-112345295D01*
X130483333Y-112345295D02*
X130483333Y-112488152D01*
X130483333Y-112488152D02*
X130435714Y-112583390D01*
X130435714Y-112583390D02*
X130388095Y-112631009D01*
X130388095Y-112631009D02*
X130292857Y-112678628D01*
X130292857Y-112678628D02*
X129911905Y-112678628D01*
X131435714Y-113154819D02*
X130864286Y-113154819D01*
X131150000Y-113154819D02*
X131150000Y-112154819D01*
X131150000Y-112154819D02*
X131054762Y-112297676D01*
X131054762Y-112297676D02*
X130959524Y-112392914D01*
X130959524Y-112392914D02*
X130864286Y-112440533D01*
X127483333Y-107604819D02*
X127150000Y-107128628D01*
X126911905Y-107604819D02*
X126911905Y-106604819D01*
X126911905Y-106604819D02*
X127292857Y-106604819D01*
X127292857Y-106604819D02*
X127388095Y-106652438D01*
X127388095Y-106652438D02*
X127435714Y-106700057D01*
X127435714Y-106700057D02*
X127483333Y-106795295D01*
X127483333Y-106795295D02*
X127483333Y-106938152D01*
X127483333Y-106938152D02*
X127435714Y-107033390D01*
X127435714Y-107033390D02*
X127388095Y-107081009D01*
X127388095Y-107081009D02*
X127292857Y-107128628D01*
X127292857Y-107128628D02*
X126911905Y-107128628D01*
X127959524Y-107604819D02*
X128150000Y-107604819D01*
X128150000Y-107604819D02*
X128245238Y-107557200D01*
X128245238Y-107557200D02*
X128292857Y-107509580D01*
X128292857Y-107509580D02*
X128388095Y-107366723D01*
X128388095Y-107366723D02*
X128435714Y-107176247D01*
X128435714Y-107176247D02*
X128435714Y-106795295D01*
X128435714Y-106795295D02*
X128388095Y-106700057D01*
X128388095Y-106700057D02*
X128340476Y-106652438D01*
X128340476Y-106652438D02*
X128245238Y-106604819D01*
X128245238Y-106604819D02*
X128054762Y-106604819D01*
X128054762Y-106604819D02*
X127959524Y-106652438D01*
X127959524Y-106652438D02*
X127911905Y-106700057D01*
X127911905Y-106700057D02*
X127864286Y-106795295D01*
X127864286Y-106795295D02*
X127864286Y-107033390D01*
X127864286Y-107033390D02*
X127911905Y-107128628D01*
X127911905Y-107128628D02*
X127959524Y-107176247D01*
X127959524Y-107176247D02*
X128054762Y-107223866D01*
X128054762Y-107223866D02*
X128245238Y-107223866D01*
X128245238Y-107223866D02*
X128340476Y-107176247D01*
X128340476Y-107176247D02*
X128388095Y-107128628D01*
X128388095Y-107128628D02*
X128435714Y-107033390D01*
X143957142Y-117059580D02*
X143909523Y-117107200D01*
X143909523Y-117107200D02*
X143766666Y-117154819D01*
X143766666Y-117154819D02*
X143671428Y-117154819D01*
X143671428Y-117154819D02*
X143528571Y-117107200D01*
X143528571Y-117107200D02*
X143433333Y-117011961D01*
X143433333Y-117011961D02*
X143385714Y-116916723D01*
X143385714Y-116916723D02*
X143338095Y-116726247D01*
X143338095Y-116726247D02*
X143338095Y-116583390D01*
X143338095Y-116583390D02*
X143385714Y-116392914D01*
X143385714Y-116392914D02*
X143433333Y-116297676D01*
X143433333Y-116297676D02*
X143528571Y-116202438D01*
X143528571Y-116202438D02*
X143671428Y-116154819D01*
X143671428Y-116154819D02*
X143766666Y-116154819D01*
X143766666Y-116154819D02*
X143909523Y-116202438D01*
X143909523Y-116202438D02*
X143957142Y-116250057D01*
X144909523Y-117154819D02*
X144338095Y-117154819D01*
X144623809Y-117154819D02*
X144623809Y-116154819D01*
X144623809Y-116154819D02*
X144528571Y-116297676D01*
X144528571Y-116297676D02*
X144433333Y-116392914D01*
X144433333Y-116392914D02*
X144338095Y-116440533D01*
X145242857Y-116154819D02*
X145861904Y-116154819D01*
X145861904Y-116154819D02*
X145528571Y-116535771D01*
X145528571Y-116535771D02*
X145671428Y-116535771D01*
X145671428Y-116535771D02*
X145766666Y-116583390D01*
X145766666Y-116583390D02*
X145814285Y-116631009D01*
X145814285Y-116631009D02*
X145861904Y-116726247D01*
X145861904Y-116726247D02*
X145861904Y-116964342D01*
X145861904Y-116964342D02*
X145814285Y-117059580D01*
X145814285Y-117059580D02*
X145766666Y-117107200D01*
X145766666Y-117107200D02*
X145671428Y-117154819D01*
X145671428Y-117154819D02*
X145385714Y-117154819D01*
X145385714Y-117154819D02*
X145290476Y-117107200D01*
X145290476Y-117107200D02*
X145242857Y-117059580D01*
X159133333Y-117059580D02*
X159085714Y-117107200D01*
X159085714Y-117107200D02*
X158942857Y-117154819D01*
X158942857Y-117154819D02*
X158847619Y-117154819D01*
X158847619Y-117154819D02*
X158704762Y-117107200D01*
X158704762Y-117107200D02*
X158609524Y-117011961D01*
X158609524Y-117011961D02*
X158561905Y-116916723D01*
X158561905Y-116916723D02*
X158514286Y-116726247D01*
X158514286Y-116726247D02*
X158514286Y-116583390D01*
X158514286Y-116583390D02*
X158561905Y-116392914D01*
X158561905Y-116392914D02*
X158609524Y-116297676D01*
X158609524Y-116297676D02*
X158704762Y-116202438D01*
X158704762Y-116202438D02*
X158847619Y-116154819D01*
X158847619Y-116154819D02*
X158942857Y-116154819D01*
X158942857Y-116154819D02*
X159085714Y-116202438D01*
X159085714Y-116202438D02*
X159133333Y-116250057D01*
X159609524Y-117154819D02*
X159800000Y-117154819D01*
X159800000Y-117154819D02*
X159895238Y-117107200D01*
X159895238Y-117107200D02*
X159942857Y-117059580D01*
X159942857Y-117059580D02*
X160038095Y-116916723D01*
X160038095Y-116916723D02*
X160085714Y-116726247D01*
X160085714Y-116726247D02*
X160085714Y-116345295D01*
X160085714Y-116345295D02*
X160038095Y-116250057D01*
X160038095Y-116250057D02*
X159990476Y-116202438D01*
X159990476Y-116202438D02*
X159895238Y-116154819D01*
X159895238Y-116154819D02*
X159704762Y-116154819D01*
X159704762Y-116154819D02*
X159609524Y-116202438D01*
X159609524Y-116202438D02*
X159561905Y-116250057D01*
X159561905Y-116250057D02*
X159514286Y-116345295D01*
X159514286Y-116345295D02*
X159514286Y-116583390D01*
X159514286Y-116583390D02*
X159561905Y-116678628D01*
X159561905Y-116678628D02*
X159609524Y-116726247D01*
X159609524Y-116726247D02*
X159704762Y-116773866D01*
X159704762Y-116773866D02*
X159895238Y-116773866D01*
X159895238Y-116773866D02*
X159990476Y-116726247D01*
X159990476Y-116726247D02*
X160038095Y-116678628D01*
X160038095Y-116678628D02*
X160085714Y-116583390D01*
X136533333Y-112154819D02*
X136200000Y-111678628D01*
X135961905Y-112154819D02*
X135961905Y-111154819D01*
X135961905Y-111154819D02*
X136342857Y-111154819D01*
X136342857Y-111154819D02*
X136438095Y-111202438D01*
X136438095Y-111202438D02*
X136485714Y-111250057D01*
X136485714Y-111250057D02*
X136533333Y-111345295D01*
X136533333Y-111345295D02*
X136533333Y-111488152D01*
X136533333Y-111488152D02*
X136485714Y-111583390D01*
X136485714Y-111583390D02*
X136438095Y-111631009D01*
X136438095Y-111631009D02*
X136342857Y-111678628D01*
X136342857Y-111678628D02*
X135961905Y-111678628D01*
X136914286Y-111250057D02*
X136961905Y-111202438D01*
X136961905Y-111202438D02*
X137057143Y-111154819D01*
X137057143Y-111154819D02*
X137295238Y-111154819D01*
X137295238Y-111154819D02*
X137390476Y-111202438D01*
X137390476Y-111202438D02*
X137438095Y-111250057D01*
X137438095Y-111250057D02*
X137485714Y-111345295D01*
X137485714Y-111345295D02*
X137485714Y-111440533D01*
X137485714Y-111440533D02*
X137438095Y-111583390D01*
X137438095Y-111583390D02*
X136866667Y-112154819D01*
X136866667Y-112154819D02*
X137485714Y-112154819D01*
X142957142Y-132559580D02*
X142909523Y-132607200D01*
X142909523Y-132607200D02*
X142766666Y-132654819D01*
X142766666Y-132654819D02*
X142671428Y-132654819D01*
X142671428Y-132654819D02*
X142528571Y-132607200D01*
X142528571Y-132607200D02*
X142433333Y-132511961D01*
X142433333Y-132511961D02*
X142385714Y-132416723D01*
X142385714Y-132416723D02*
X142338095Y-132226247D01*
X142338095Y-132226247D02*
X142338095Y-132083390D01*
X142338095Y-132083390D02*
X142385714Y-131892914D01*
X142385714Y-131892914D02*
X142433333Y-131797676D01*
X142433333Y-131797676D02*
X142528571Y-131702438D01*
X142528571Y-131702438D02*
X142671428Y-131654819D01*
X142671428Y-131654819D02*
X142766666Y-131654819D01*
X142766666Y-131654819D02*
X142909523Y-131702438D01*
X142909523Y-131702438D02*
X142957142Y-131750057D01*
X143909523Y-132654819D02*
X143338095Y-132654819D01*
X143623809Y-132654819D02*
X143623809Y-131654819D01*
X143623809Y-131654819D02*
X143528571Y-131797676D01*
X143528571Y-131797676D02*
X143433333Y-131892914D01*
X143433333Y-131892914D02*
X143338095Y-131940533D01*
X144814285Y-131654819D02*
X144338095Y-131654819D01*
X144338095Y-131654819D02*
X144290476Y-132131009D01*
X144290476Y-132131009D02*
X144338095Y-132083390D01*
X144338095Y-132083390D02*
X144433333Y-132035771D01*
X144433333Y-132035771D02*
X144671428Y-132035771D01*
X144671428Y-132035771D02*
X144766666Y-132083390D01*
X144766666Y-132083390D02*
X144814285Y-132131009D01*
X144814285Y-132131009D02*
X144861904Y-132226247D01*
X144861904Y-132226247D02*
X144861904Y-132464342D01*
X144861904Y-132464342D02*
X144814285Y-132559580D01*
X144814285Y-132559580D02*
X144766666Y-132607200D01*
X144766666Y-132607200D02*
X144671428Y-132654819D01*
X144671428Y-132654819D02*
X144433333Y-132654819D01*
X144433333Y-132654819D02*
X144338095Y-132607200D01*
X144338095Y-132607200D02*
X144290476Y-132559580D01*
X157809580Y-113416666D02*
X157857200Y-113464285D01*
X157857200Y-113464285D02*
X157904819Y-113607142D01*
X157904819Y-113607142D02*
X157904819Y-113702380D01*
X157904819Y-113702380D02*
X157857200Y-113845237D01*
X157857200Y-113845237D02*
X157761961Y-113940475D01*
X157761961Y-113940475D02*
X157666723Y-113988094D01*
X157666723Y-113988094D02*
X157476247Y-114035713D01*
X157476247Y-114035713D02*
X157333390Y-114035713D01*
X157333390Y-114035713D02*
X157142914Y-113988094D01*
X157142914Y-113988094D02*
X157047676Y-113940475D01*
X157047676Y-113940475D02*
X156952438Y-113845237D01*
X156952438Y-113845237D02*
X156904819Y-113702380D01*
X156904819Y-113702380D02*
X156904819Y-113607142D01*
X156904819Y-113607142D02*
X156952438Y-113464285D01*
X156952438Y-113464285D02*
X157000057Y-113416666D01*
X156904819Y-113083332D02*
X156904819Y-112464285D01*
X156904819Y-112464285D02*
X157285771Y-112797618D01*
X157285771Y-112797618D02*
X157285771Y-112654761D01*
X157285771Y-112654761D02*
X157333390Y-112559523D01*
X157333390Y-112559523D02*
X157381009Y-112511904D01*
X157381009Y-112511904D02*
X157476247Y-112464285D01*
X157476247Y-112464285D02*
X157714342Y-112464285D01*
X157714342Y-112464285D02*
X157809580Y-112511904D01*
X157809580Y-112511904D02*
X157857200Y-112559523D01*
X157857200Y-112559523D02*
X157904819Y-112654761D01*
X157904819Y-112654761D02*
X157904819Y-112940475D01*
X157904819Y-112940475D02*
X157857200Y-113035713D01*
X157857200Y-113035713D02*
X157809580Y-113083332D01*
X146533333Y-113559580D02*
X146485714Y-113607200D01*
X146485714Y-113607200D02*
X146342857Y-113654819D01*
X146342857Y-113654819D02*
X146247619Y-113654819D01*
X146247619Y-113654819D02*
X146104762Y-113607200D01*
X146104762Y-113607200D02*
X146009524Y-113511961D01*
X146009524Y-113511961D02*
X145961905Y-113416723D01*
X145961905Y-113416723D02*
X145914286Y-113226247D01*
X145914286Y-113226247D02*
X145914286Y-113083390D01*
X145914286Y-113083390D02*
X145961905Y-112892914D01*
X145961905Y-112892914D02*
X146009524Y-112797676D01*
X146009524Y-112797676D02*
X146104762Y-112702438D01*
X146104762Y-112702438D02*
X146247619Y-112654819D01*
X146247619Y-112654819D02*
X146342857Y-112654819D01*
X146342857Y-112654819D02*
X146485714Y-112702438D01*
X146485714Y-112702438D02*
X146533333Y-112750057D01*
X147390476Y-112654819D02*
X147200000Y-112654819D01*
X147200000Y-112654819D02*
X147104762Y-112702438D01*
X147104762Y-112702438D02*
X147057143Y-112750057D01*
X147057143Y-112750057D02*
X146961905Y-112892914D01*
X146961905Y-112892914D02*
X146914286Y-113083390D01*
X146914286Y-113083390D02*
X146914286Y-113464342D01*
X146914286Y-113464342D02*
X146961905Y-113559580D01*
X146961905Y-113559580D02*
X147009524Y-113607200D01*
X147009524Y-113607200D02*
X147104762Y-113654819D01*
X147104762Y-113654819D02*
X147295238Y-113654819D01*
X147295238Y-113654819D02*
X147390476Y-113607200D01*
X147390476Y-113607200D02*
X147438095Y-113559580D01*
X147438095Y-113559580D02*
X147485714Y-113464342D01*
X147485714Y-113464342D02*
X147485714Y-113226247D01*
X147485714Y-113226247D02*
X147438095Y-113131009D01*
X147438095Y-113131009D02*
X147390476Y-113083390D01*
X147390476Y-113083390D02*
X147295238Y-113035771D01*
X147295238Y-113035771D02*
X147104762Y-113035771D01*
X147104762Y-113035771D02*
X147009524Y-113083390D01*
X147009524Y-113083390D02*
X146961905Y-113131009D01*
X146961905Y-113131009D02*
X146914286Y-113226247D01*
X159533333Y-115509580D02*
X159485714Y-115557200D01*
X159485714Y-115557200D02*
X159342857Y-115604819D01*
X159342857Y-115604819D02*
X159247619Y-115604819D01*
X159247619Y-115604819D02*
X159104762Y-115557200D01*
X159104762Y-115557200D02*
X159009524Y-115461961D01*
X159009524Y-115461961D02*
X158961905Y-115366723D01*
X158961905Y-115366723D02*
X158914286Y-115176247D01*
X158914286Y-115176247D02*
X158914286Y-115033390D01*
X158914286Y-115033390D02*
X158961905Y-114842914D01*
X158961905Y-114842914D02*
X159009524Y-114747676D01*
X159009524Y-114747676D02*
X159104762Y-114652438D01*
X159104762Y-114652438D02*
X159247619Y-114604819D01*
X159247619Y-114604819D02*
X159342857Y-114604819D01*
X159342857Y-114604819D02*
X159485714Y-114652438D01*
X159485714Y-114652438D02*
X159533333Y-114700057D01*
X160390476Y-114938152D02*
X160390476Y-115604819D01*
X160152381Y-114557200D02*
X159914286Y-115271485D01*
X159914286Y-115271485D02*
X160533333Y-115271485D01*
X154483333Y-104854819D02*
X154150000Y-104378628D01*
X153911905Y-104854819D02*
X153911905Y-103854819D01*
X153911905Y-103854819D02*
X154292857Y-103854819D01*
X154292857Y-103854819D02*
X154388095Y-103902438D01*
X154388095Y-103902438D02*
X154435714Y-103950057D01*
X154435714Y-103950057D02*
X154483333Y-104045295D01*
X154483333Y-104045295D02*
X154483333Y-104188152D01*
X154483333Y-104188152D02*
X154435714Y-104283390D01*
X154435714Y-104283390D02*
X154388095Y-104331009D01*
X154388095Y-104331009D02*
X154292857Y-104378628D01*
X154292857Y-104378628D02*
X153911905Y-104378628D01*
X155340476Y-104188152D02*
X155340476Y-104854819D01*
X155102381Y-103807200D02*
X154864286Y-104521485D01*
X154864286Y-104521485D02*
X155483333Y-104521485D01*
X151309580Y-125942857D02*
X151357200Y-125990476D01*
X151357200Y-125990476D02*
X151404819Y-126133333D01*
X151404819Y-126133333D02*
X151404819Y-126228571D01*
X151404819Y-126228571D02*
X151357200Y-126371428D01*
X151357200Y-126371428D02*
X151261961Y-126466666D01*
X151261961Y-126466666D02*
X151166723Y-126514285D01*
X151166723Y-126514285D02*
X150976247Y-126561904D01*
X150976247Y-126561904D02*
X150833390Y-126561904D01*
X150833390Y-126561904D02*
X150642914Y-126514285D01*
X150642914Y-126514285D02*
X150547676Y-126466666D01*
X150547676Y-126466666D02*
X150452438Y-126371428D01*
X150452438Y-126371428D02*
X150404819Y-126228571D01*
X150404819Y-126228571D02*
X150404819Y-126133333D01*
X150404819Y-126133333D02*
X150452438Y-125990476D01*
X150452438Y-125990476D02*
X150500057Y-125942857D01*
X151404819Y-124990476D02*
X151404819Y-125561904D01*
X151404819Y-125276190D02*
X150404819Y-125276190D01*
X150404819Y-125276190D02*
X150547676Y-125371428D01*
X150547676Y-125371428D02*
X150642914Y-125466666D01*
X150642914Y-125466666D02*
X150690533Y-125561904D01*
X150404819Y-124133333D02*
X150404819Y-124323809D01*
X150404819Y-124323809D02*
X150452438Y-124419047D01*
X150452438Y-124419047D02*
X150500057Y-124466666D01*
X150500057Y-124466666D02*
X150642914Y-124561904D01*
X150642914Y-124561904D02*
X150833390Y-124609523D01*
X150833390Y-124609523D02*
X151214342Y-124609523D01*
X151214342Y-124609523D02*
X151309580Y-124561904D01*
X151309580Y-124561904D02*
X151357200Y-124514285D01*
X151357200Y-124514285D02*
X151404819Y-124419047D01*
X151404819Y-124419047D02*
X151404819Y-124228571D01*
X151404819Y-124228571D02*
X151357200Y-124133333D01*
X151357200Y-124133333D02*
X151309580Y-124085714D01*
X151309580Y-124085714D02*
X151214342Y-124038095D01*
X151214342Y-124038095D02*
X150976247Y-124038095D01*
X150976247Y-124038095D02*
X150881009Y-124085714D01*
X150881009Y-124085714D02*
X150833390Y-124133333D01*
X150833390Y-124133333D02*
X150785771Y-124228571D01*
X150785771Y-124228571D02*
X150785771Y-124419047D01*
X150785771Y-124419047D02*
X150833390Y-124514285D01*
X150833390Y-124514285D02*
X150881009Y-124561904D01*
X150881009Y-124561904D02*
X150976247Y-124609523D01*
X146507142Y-107359580D02*
X146459523Y-107407200D01*
X146459523Y-107407200D02*
X146316666Y-107454819D01*
X146316666Y-107454819D02*
X146221428Y-107454819D01*
X146221428Y-107454819D02*
X146078571Y-107407200D01*
X146078571Y-107407200D02*
X145983333Y-107311961D01*
X145983333Y-107311961D02*
X145935714Y-107216723D01*
X145935714Y-107216723D02*
X145888095Y-107026247D01*
X145888095Y-107026247D02*
X145888095Y-106883390D01*
X145888095Y-106883390D02*
X145935714Y-106692914D01*
X145935714Y-106692914D02*
X145983333Y-106597676D01*
X145983333Y-106597676D02*
X146078571Y-106502438D01*
X146078571Y-106502438D02*
X146221428Y-106454819D01*
X146221428Y-106454819D02*
X146316666Y-106454819D01*
X146316666Y-106454819D02*
X146459523Y-106502438D01*
X146459523Y-106502438D02*
X146507142Y-106550057D01*
X147459523Y-107454819D02*
X146888095Y-107454819D01*
X147173809Y-107454819D02*
X147173809Y-106454819D01*
X147173809Y-106454819D02*
X147078571Y-106597676D01*
X147078571Y-106597676D02*
X146983333Y-106692914D01*
X146983333Y-106692914D02*
X146888095Y-106740533D01*
X147935714Y-107454819D02*
X148126190Y-107454819D01*
X148126190Y-107454819D02*
X148221428Y-107407200D01*
X148221428Y-107407200D02*
X148269047Y-107359580D01*
X148269047Y-107359580D02*
X148364285Y-107216723D01*
X148364285Y-107216723D02*
X148411904Y-107026247D01*
X148411904Y-107026247D02*
X148411904Y-106645295D01*
X148411904Y-106645295D02*
X148364285Y-106550057D01*
X148364285Y-106550057D02*
X148316666Y-106502438D01*
X148316666Y-106502438D02*
X148221428Y-106454819D01*
X148221428Y-106454819D02*
X148030952Y-106454819D01*
X148030952Y-106454819D02*
X147935714Y-106502438D01*
X147935714Y-106502438D02*
X147888095Y-106550057D01*
X147888095Y-106550057D02*
X147840476Y-106645295D01*
X147840476Y-106645295D02*
X147840476Y-106883390D01*
X147840476Y-106883390D02*
X147888095Y-106978628D01*
X147888095Y-106978628D02*
X147935714Y-107026247D01*
X147935714Y-107026247D02*
X148030952Y-107073866D01*
X148030952Y-107073866D02*
X148221428Y-107073866D01*
X148221428Y-107073866D02*
X148316666Y-107026247D01*
X148316666Y-107026247D02*
X148364285Y-106978628D01*
X148364285Y-106978628D02*
X148411904Y-106883390D01*
X153309580Y-122542857D02*
X153357200Y-122590476D01*
X153357200Y-122590476D02*
X153404819Y-122733333D01*
X153404819Y-122733333D02*
X153404819Y-122828571D01*
X153404819Y-122828571D02*
X153357200Y-122971428D01*
X153357200Y-122971428D02*
X153261961Y-123066666D01*
X153261961Y-123066666D02*
X153166723Y-123114285D01*
X153166723Y-123114285D02*
X152976247Y-123161904D01*
X152976247Y-123161904D02*
X152833390Y-123161904D01*
X152833390Y-123161904D02*
X152642914Y-123114285D01*
X152642914Y-123114285D02*
X152547676Y-123066666D01*
X152547676Y-123066666D02*
X152452438Y-122971428D01*
X152452438Y-122971428D02*
X152404819Y-122828571D01*
X152404819Y-122828571D02*
X152404819Y-122733333D01*
X152404819Y-122733333D02*
X152452438Y-122590476D01*
X152452438Y-122590476D02*
X152500057Y-122542857D01*
X153404819Y-121590476D02*
X153404819Y-122161904D01*
X153404819Y-121876190D02*
X152404819Y-121876190D01*
X152404819Y-121876190D02*
X152547676Y-121971428D01*
X152547676Y-121971428D02*
X152642914Y-122066666D01*
X152642914Y-122066666D02*
X152690533Y-122161904D01*
X152404819Y-120971428D02*
X152404819Y-120876190D01*
X152404819Y-120876190D02*
X152452438Y-120780952D01*
X152452438Y-120780952D02*
X152500057Y-120733333D01*
X152500057Y-120733333D02*
X152595295Y-120685714D01*
X152595295Y-120685714D02*
X152785771Y-120638095D01*
X152785771Y-120638095D02*
X153023866Y-120638095D01*
X153023866Y-120638095D02*
X153214342Y-120685714D01*
X153214342Y-120685714D02*
X153309580Y-120733333D01*
X153309580Y-120733333D02*
X153357200Y-120780952D01*
X153357200Y-120780952D02*
X153404819Y-120876190D01*
X153404819Y-120876190D02*
X153404819Y-120971428D01*
X153404819Y-120971428D02*
X153357200Y-121066666D01*
X153357200Y-121066666D02*
X153309580Y-121114285D01*
X153309580Y-121114285D02*
X153214342Y-121161904D01*
X153214342Y-121161904D02*
X153023866Y-121209523D01*
X153023866Y-121209523D02*
X152785771Y-121209523D01*
X152785771Y-121209523D02*
X152595295Y-121161904D01*
X152595295Y-121161904D02*
X152500057Y-121114285D01*
X152500057Y-121114285D02*
X152452438Y-121066666D01*
X152452438Y-121066666D02*
X152404819Y-120971428D01*
D11*
X129538333Y-128924318D02*
X128933571Y-128924318D01*
X128933571Y-128924318D02*
X128933571Y-127654318D01*
X129840714Y-127654318D02*
X130626905Y-127654318D01*
X130626905Y-127654318D02*
X130203571Y-128138127D01*
X130203571Y-128138127D02*
X130385000Y-128138127D01*
X130385000Y-128138127D02*
X130505952Y-128198603D01*
X130505952Y-128198603D02*
X130566428Y-128259080D01*
X130566428Y-128259080D02*
X130626905Y-128380032D01*
X130626905Y-128380032D02*
X130626905Y-128682413D01*
X130626905Y-128682413D02*
X130566428Y-128803365D01*
X130566428Y-128803365D02*
X130505952Y-128863842D01*
X130505952Y-128863842D02*
X130385000Y-128924318D01*
X130385000Y-128924318D02*
X130022143Y-128924318D01*
X130022143Y-128924318D02*
X129901190Y-128863842D01*
X129901190Y-128863842D02*
X129840714Y-128803365D01*
X164288333Y-132424318D02*
X163683571Y-132424318D01*
X163683571Y-132424318D02*
X163683571Y-131154318D01*
X164651190Y-131275270D02*
X164711666Y-131214794D01*
X164711666Y-131214794D02*
X164832619Y-131154318D01*
X164832619Y-131154318D02*
X165135000Y-131154318D01*
X165135000Y-131154318D02*
X165255952Y-131214794D01*
X165255952Y-131214794D02*
X165316428Y-131275270D01*
X165316428Y-131275270D02*
X165376905Y-131396222D01*
X165376905Y-131396222D02*
X165376905Y-131517175D01*
X165376905Y-131517175D02*
X165316428Y-131698603D01*
X165316428Y-131698603D02*
X164590714Y-132424318D01*
X164590714Y-132424318D02*
X165376905Y-132424318D01*
D10*
X135983333Y-109004819D02*
X135650000Y-108528628D01*
X135411905Y-109004819D02*
X135411905Y-108004819D01*
X135411905Y-108004819D02*
X135792857Y-108004819D01*
X135792857Y-108004819D02*
X135888095Y-108052438D01*
X135888095Y-108052438D02*
X135935714Y-108100057D01*
X135935714Y-108100057D02*
X135983333Y-108195295D01*
X135983333Y-108195295D02*
X135983333Y-108338152D01*
X135983333Y-108338152D02*
X135935714Y-108433390D01*
X135935714Y-108433390D02*
X135888095Y-108481009D01*
X135888095Y-108481009D02*
X135792857Y-108528628D01*
X135792857Y-108528628D02*
X135411905Y-108528628D01*
X136316667Y-108004819D02*
X136983333Y-108004819D01*
X136983333Y-108004819D02*
X136554762Y-109004819D01*
X154716666Y-135654819D02*
X154716666Y-136369104D01*
X154716666Y-136369104D02*
X154669047Y-136511961D01*
X154669047Y-136511961D02*
X154573809Y-136607200D01*
X154573809Y-136607200D02*
X154430952Y-136654819D01*
X154430952Y-136654819D02*
X154335714Y-136654819D01*
X155145238Y-135750057D02*
X155192857Y-135702438D01*
X155192857Y-135702438D02*
X155288095Y-135654819D01*
X155288095Y-135654819D02*
X155526190Y-135654819D01*
X155526190Y-135654819D02*
X155621428Y-135702438D01*
X155621428Y-135702438D02*
X155669047Y-135750057D01*
X155669047Y-135750057D02*
X155716666Y-135845295D01*
X155716666Y-135845295D02*
X155716666Y-135940533D01*
X155716666Y-135940533D02*
X155669047Y-136083390D01*
X155669047Y-136083390D02*
X155097619Y-136654819D01*
X155097619Y-136654819D02*
X155716666Y-136654819D01*
X153959580Y-126042857D02*
X154007200Y-126090476D01*
X154007200Y-126090476D02*
X154054819Y-126233333D01*
X154054819Y-126233333D02*
X154054819Y-126328571D01*
X154054819Y-126328571D02*
X154007200Y-126471428D01*
X154007200Y-126471428D02*
X153911961Y-126566666D01*
X153911961Y-126566666D02*
X153816723Y-126614285D01*
X153816723Y-126614285D02*
X153626247Y-126661904D01*
X153626247Y-126661904D02*
X153483390Y-126661904D01*
X153483390Y-126661904D02*
X153292914Y-126614285D01*
X153292914Y-126614285D02*
X153197676Y-126566666D01*
X153197676Y-126566666D02*
X153102438Y-126471428D01*
X153102438Y-126471428D02*
X153054819Y-126328571D01*
X153054819Y-126328571D02*
X153054819Y-126233333D01*
X153054819Y-126233333D02*
X153102438Y-126090476D01*
X153102438Y-126090476D02*
X153150057Y-126042857D01*
X154054819Y-125090476D02*
X154054819Y-125661904D01*
X154054819Y-125376190D02*
X153054819Y-125376190D01*
X153054819Y-125376190D02*
X153197676Y-125471428D01*
X153197676Y-125471428D02*
X153292914Y-125566666D01*
X153292914Y-125566666D02*
X153340533Y-125661904D01*
X153150057Y-124709523D02*
X153102438Y-124661904D01*
X153102438Y-124661904D02*
X153054819Y-124566666D01*
X153054819Y-124566666D02*
X153054819Y-124328571D01*
X153054819Y-124328571D02*
X153102438Y-124233333D01*
X153102438Y-124233333D02*
X153150057Y-124185714D01*
X153150057Y-124185714D02*
X153245295Y-124138095D01*
X153245295Y-124138095D02*
X153340533Y-124138095D01*
X153340533Y-124138095D02*
X153483390Y-124185714D01*
X153483390Y-124185714D02*
X154054819Y-124757142D01*
X154054819Y-124757142D02*
X154054819Y-124138095D01*
X153288095Y-51854819D02*
X153288095Y-52664342D01*
X153288095Y-52664342D02*
X153335714Y-52759580D01*
X153335714Y-52759580D02*
X153383333Y-52807200D01*
X153383333Y-52807200D02*
X153478571Y-52854819D01*
X153478571Y-52854819D02*
X153669047Y-52854819D01*
X153669047Y-52854819D02*
X153764285Y-52807200D01*
X153764285Y-52807200D02*
X153811904Y-52759580D01*
X153811904Y-52759580D02*
X153859523Y-52664342D01*
X153859523Y-52664342D02*
X153859523Y-51854819D01*
X154288095Y-51950057D02*
X154335714Y-51902438D01*
X154335714Y-51902438D02*
X154430952Y-51854819D01*
X154430952Y-51854819D02*
X154669047Y-51854819D01*
X154669047Y-51854819D02*
X154764285Y-51902438D01*
X154764285Y-51902438D02*
X154811904Y-51950057D01*
X154811904Y-51950057D02*
X154859523Y-52045295D01*
X154859523Y-52045295D02*
X154859523Y-52140533D01*
X154859523Y-52140533D02*
X154811904Y-52283390D01*
X154811904Y-52283390D02*
X154240476Y-52854819D01*
X154240476Y-52854819D02*
X154859523Y-52854819D01*
D11*
X175288333Y-129074318D02*
X174683571Y-129074318D01*
X174683571Y-129074318D02*
X174683571Y-127804318D01*
X176376905Y-129074318D02*
X175651190Y-129074318D01*
X176014047Y-129074318D02*
X176014047Y-127804318D01*
X176014047Y-127804318D02*
X175893095Y-127985746D01*
X175893095Y-127985746D02*
X175772143Y-128106699D01*
X175772143Y-128106699D02*
X175651190Y-128167175D01*
D10*
X157333333Y-107759580D02*
X157285714Y-107807200D01*
X157285714Y-107807200D02*
X157142857Y-107854819D01*
X157142857Y-107854819D02*
X157047619Y-107854819D01*
X157047619Y-107854819D02*
X156904762Y-107807200D01*
X156904762Y-107807200D02*
X156809524Y-107711961D01*
X156809524Y-107711961D02*
X156761905Y-107616723D01*
X156761905Y-107616723D02*
X156714286Y-107426247D01*
X156714286Y-107426247D02*
X156714286Y-107283390D01*
X156714286Y-107283390D02*
X156761905Y-107092914D01*
X156761905Y-107092914D02*
X156809524Y-106997676D01*
X156809524Y-106997676D02*
X156904762Y-106902438D01*
X156904762Y-106902438D02*
X157047619Y-106854819D01*
X157047619Y-106854819D02*
X157142857Y-106854819D01*
X157142857Y-106854819D02*
X157285714Y-106902438D01*
X157285714Y-106902438D02*
X157333333Y-106950057D01*
X158285714Y-107854819D02*
X157714286Y-107854819D01*
X158000000Y-107854819D02*
X158000000Y-106854819D01*
X158000000Y-106854819D02*
X157904762Y-106997676D01*
X157904762Y-106997676D02*
X157809524Y-107092914D01*
X157809524Y-107092914D02*
X157714286Y-107140533D01*
D11*
X140088333Y-132424318D02*
X139483571Y-132424318D01*
X139483571Y-132424318D02*
X139483571Y-131154318D01*
X141055952Y-131577651D02*
X141055952Y-132424318D01*
X140753571Y-131093842D02*
X140451190Y-132000984D01*
X140451190Y-132000984D02*
X141237381Y-132000984D01*
D10*
X152057142Y-108559580D02*
X152009523Y-108607200D01*
X152009523Y-108607200D02*
X151866666Y-108654819D01*
X151866666Y-108654819D02*
X151771428Y-108654819D01*
X151771428Y-108654819D02*
X151628571Y-108607200D01*
X151628571Y-108607200D02*
X151533333Y-108511961D01*
X151533333Y-108511961D02*
X151485714Y-108416723D01*
X151485714Y-108416723D02*
X151438095Y-108226247D01*
X151438095Y-108226247D02*
X151438095Y-108083390D01*
X151438095Y-108083390D02*
X151485714Y-107892914D01*
X151485714Y-107892914D02*
X151533333Y-107797676D01*
X151533333Y-107797676D02*
X151628571Y-107702438D01*
X151628571Y-107702438D02*
X151771428Y-107654819D01*
X151771428Y-107654819D02*
X151866666Y-107654819D01*
X151866666Y-107654819D02*
X152009523Y-107702438D01*
X152009523Y-107702438D02*
X152057142Y-107750057D01*
X153009523Y-108654819D02*
X152438095Y-108654819D01*
X152723809Y-108654819D02*
X152723809Y-107654819D01*
X152723809Y-107654819D02*
X152628571Y-107797676D01*
X152628571Y-107797676D02*
X152533333Y-107892914D01*
X152533333Y-107892914D02*
X152438095Y-107940533D01*
X153342857Y-107654819D02*
X154009523Y-107654819D01*
X154009523Y-107654819D02*
X153580952Y-108654819D01*
%TO.C,U4*%
D12*
X167084959Y-87100000D02*
X165499999Y-87100000D01*
X167800000Y-89247428D02*
X167100001Y-89247428D01*
X167800000Y-89882428D02*
X167100001Y-89882428D01*
X167800000Y-91797425D02*
X167100001Y-91797425D01*
X167800000Y-92432425D02*
X167100001Y-92432425D01*
X167800000Y-94322426D02*
X167100001Y-94322426D01*
X167800000Y-94957426D02*
X167100001Y-94957426D01*
X167084959Y-97100000D02*
X167084959Y-87100000D01*
X167084959Y-97100000D02*
X165499999Y-97100000D01*
X165499999Y-97100000D02*
X165499999Y-87100000D01*
%TO.C,C25*%
D13*
X164140000Y-94407836D02*
X164140000Y-94192164D01*
X164860000Y-94407836D02*
X164860000Y-94192164D01*
%TO.C,C24*%
X163610000Y-95211252D02*
X163610000Y-93788748D01*
X161790000Y-95211252D02*
X161790000Y-93788748D01*
%TO.C,C26*%
X163610000Y-88988748D02*
X163610000Y-90411252D01*
X161790000Y-88988748D02*
X161790000Y-90411252D01*
%TO.C,C27*%
X161110000Y-88988748D02*
X161110000Y-90411252D01*
X159290000Y-88988748D02*
X159290000Y-90411252D01*
%TO.C,C28*%
X164140000Y-89792164D02*
X164140000Y-90007836D01*
X164860000Y-89792164D02*
X164860000Y-90007836D01*
%TO.C,J1*%
X68340000Y-106450000D02*
X68340000Y-109050000D01*
X68340000Y-106450000D02*
X119260000Y-106450000D01*
X68340000Y-109050000D02*
X70940000Y-109050000D01*
X68340000Y-110320000D02*
X68340000Y-111650000D01*
X68340000Y-111650000D02*
X69670000Y-111650000D01*
X70940000Y-109050000D02*
X70940000Y-111650000D01*
X70940000Y-111650000D02*
X119260000Y-111650000D01*
X119260000Y-106450000D02*
X119260000Y-111650000D01*
%TO.C,J4*%
D14*
X126300000Y-132550000D02*
G75*
G02*
X123300000Y-135550000I-3000000J0D01*
G01*
X123300000Y-105550000D02*
G75*
G02*
X126300000Y-108550000I0J-3000000D01*
G01*
X64300000Y-135550000D02*
G75*
G02*
X61300000Y-132550000I1J3000001D01*
G01*
X61300000Y-108550000D02*
G75*
G02*
X64300000Y-105550000I3000001J-1D01*
G01*
X126300000Y-132550000D02*
X126300000Y-108550000D01*
X123300000Y-105550000D02*
X64300000Y-105550000D01*
X110800000Y-135550000D02*
X119150000Y-135550000D01*
X98200000Y-135550000D02*
X106550000Y-135550000D01*
X64300000Y-135550000D02*
X123300000Y-135550000D01*
X61300000Y-108550000D02*
X61300000Y-132550000D01*
%TO.C,R10*%
D13*
X152520000Y-105636359D02*
X152520000Y-105943641D01*
X153280000Y-105636359D02*
X153280000Y-105943641D01*
%TO.C,J3*%
D12*
X57100000Y-53875000D02*
X57100000Y-63875000D01*
X57100000Y-63875000D02*
X62700000Y-63875000D01*
X60000000Y-53875000D02*
X57100000Y-53875000D01*
X62700000Y-63875000D02*
X62700000Y-56000000D01*
%TO.C,R6*%
D13*
X133826359Y-106820000D02*
X134133641Y-106820000D01*
X133826359Y-107580000D02*
X134133641Y-107580000D01*
%TO.C,R8*%
X130720000Y-106043641D02*
X130720000Y-105736359D01*
X131480000Y-106043641D02*
X131480000Y-105736359D01*
%TO.C,R3*%
X133020000Y-113663641D02*
X133020000Y-113356359D01*
X133780000Y-113663641D02*
X133780000Y-113356359D01*
%TO.C,U1*%
X149590000Y-110717535D02*
X150065000Y-110717535D01*
X149590000Y-111192535D02*
X149590000Y-110717535D01*
X149590000Y-115937535D02*
X149590000Y-115462535D01*
X150065000Y-115937535D02*
X149590000Y-115937535D01*
X154335000Y-110717535D02*
X154810000Y-110717535D01*
X154810000Y-110717535D02*
X154810000Y-111192535D01*
X154810000Y-115462535D02*
X154810000Y-115937535D01*
X154810000Y-115937535D02*
X154335000Y-115937535D01*
X155340000Y-115077535D02*
X155670000Y-114837535D01*
X155670000Y-115317535D01*
X155340000Y-115077535D01*
G36*
X155670000Y-115317535D02*
G01*
X155340000Y-115077535D01*
X155670000Y-114837535D01*
X155670000Y-115317535D01*
G37*
%TO.C,C2*%
X157084420Y-109617535D02*
X157365580Y-109617535D01*
X157084420Y-110637535D02*
X157365580Y-110637535D01*
%TO.C,R5*%
X133836359Y-105720000D02*
X134143641Y-105720000D01*
X133836359Y-106480000D02*
X134143641Y-106480000D01*
%TO.C,C14*%
X150890000Y-118761955D02*
X150890000Y-119043115D01*
X151910000Y-118761955D02*
X151910000Y-119043115D01*
%TO.C,C8*%
X141565000Y-112938787D02*
X141565000Y-112416283D01*
X143035000Y-112938787D02*
X143035000Y-112416283D01*
%TO.C,C7*%
X143815000Y-112938787D02*
X143815000Y-112416283D01*
X145285000Y-112938787D02*
X145285000Y-112416283D01*
%TO.C,C18*%
X147265580Y-110917535D02*
X146984420Y-110917535D01*
X147265580Y-111937535D02*
X146984420Y-111937535D01*
%TO.C,C5*%
X160765000Y-112938787D02*
X160765000Y-112416283D01*
X162235000Y-112938787D02*
X162235000Y-112416283D01*
%TO.C,C11*%
X160288748Y-133265000D02*
X160811252Y-133265000D01*
X160288748Y-134735000D02*
X160811252Y-134735000D01*
%TO.C,R1*%
X131063641Y-113620000D02*
X130756359Y-113620000D01*
X131063641Y-114380000D02*
X130756359Y-114380000D01*
%TO.C,R9*%
X127220000Y-105543641D02*
X127220000Y-105236359D01*
X127980000Y-105543641D02*
X127980000Y-105236359D01*
%TO.C,C13*%
X146490000Y-115993115D02*
X146490000Y-115711955D01*
X147510000Y-115993115D02*
X147510000Y-115711955D01*
%TO.C,C9*%
X156890000Y-115993115D02*
X156890000Y-115711955D01*
X157910000Y-115993115D02*
X157910000Y-115711955D01*
%TO.C,R2*%
X134820000Y-111943641D02*
X134820000Y-111636359D01*
X135580000Y-111943641D02*
X135580000Y-111636359D01*
%TO.C,C15*%
X143861252Y-133265000D02*
X143338748Y-133265000D01*
X143861252Y-134735000D02*
X143338748Y-134735000D01*
%TO.C,C3*%
X155940000Y-113355371D02*
X155940000Y-113139699D01*
X156660000Y-113355371D02*
X156660000Y-113139699D01*
%TO.C,C6*%
X147740000Y-113305371D02*
X147740000Y-113089699D01*
X148460000Y-113305371D02*
X148460000Y-113089699D01*
%TO.C,C4*%
X158515000Y-112938787D02*
X158515000Y-112416283D01*
X159985000Y-112938787D02*
X159985000Y-112416283D01*
%TO.C,R4*%
X154743641Y-105220000D02*
X154436359Y-105220000D01*
X154743641Y-105980000D02*
X154436359Y-105980000D01*
%TO.C,C16*%
X150165000Y-129538787D02*
X150165000Y-129016283D01*
X151635000Y-129538787D02*
X151635000Y-129016283D01*
%TO.C,C19*%
X147265580Y-109317535D02*
X146984420Y-109317535D01*
X147265580Y-110337535D02*
X146984420Y-110337535D01*
%TO.C,C10*%
X152490000Y-118761955D02*
X152490000Y-119043115D01*
X153510000Y-118761955D02*
X153510000Y-119043115D01*
%TO.C,L3*%
D12*
X128800000Y-115977535D02*
X128800000Y-126277535D01*
X138800000Y-126277535D02*
X138800000Y-115977535D01*
%TO.C,L2*%
X155200000Y-119752535D02*
X155200000Y-130052535D01*
X165200000Y-130052535D02*
X165200000Y-119752535D01*
%TO.C,R7*%
D13*
X133836359Y-107920000D02*
X134143641Y-107920000D01*
X133836359Y-108680000D02*
X134143641Y-108680000D01*
%TO.C,J2*%
X148090000Y-132890000D02*
X148090000Y-135110000D01*
X154200000Y-132890000D02*
X148090000Y-132890000D01*
X154200000Y-132890000D02*
X154200000Y-135110000D01*
X154200000Y-135110000D02*
X148090000Y-135110000D01*
X155200000Y-132890000D02*
X156310000Y-132890000D01*
X156310000Y-132890000D02*
X156310000Y-134000000D01*
%TO.C,C12*%
X152765000Y-129538787D02*
X152765000Y-129016283D01*
X154235000Y-129538787D02*
X154235000Y-129016283D01*
%TO.C,U2*%
X64300000Y-50800000D02*
X64300000Y-103200000D01*
X64300000Y-103200000D02*
X151700000Y-103200000D01*
X68500000Y-50300000D02*
X71000000Y-50300000D01*
X151700000Y-50800000D02*
X64300000Y-50800000D01*
X151700000Y-103200000D02*
X151700000Y-50800000D01*
%TO.C,L1*%
D12*
X165600000Y-115977535D02*
X165600000Y-126277535D01*
X175600000Y-126277535D02*
X175600000Y-115977535D01*
%TO.C,C1*%
D13*
X156612164Y-111267535D02*
X156827836Y-111267535D01*
X156612164Y-111987535D02*
X156827836Y-111987535D01*
%TO.C,L4*%
D12*
X139200000Y-119752535D02*
X139200000Y-130052535D01*
X149200000Y-130052535D02*
X149200000Y-119752535D01*
%TO.C,C17*%
D13*
X154390000Y-108693115D02*
X154390000Y-108411955D01*
X155410000Y-108693115D02*
X155410000Y-108411955D01*
%TD*%
D15*
%TO.C,J3*%
X60000000Y-56000000D03*
D16*
X60000000Y-61500000D03*
%TD*%
M02*
